<svg id="svg" version="1.1" width="400" height="135" xmlns="http://www.w3.org/2000/svg" xmlns:xlink="http://www.w3.org/1999/xlink" style="display: block;"><g id="svgg"><path id="path0" d="M203.000 15.376 L 203.000 30.752 196.750 28.494 C 168.034 18.122,144.474 35.360,141.762 68.727 C 141.562 71.197,139.398 66.321,132.546 47.955 L 123.592 23.956 106.058 24.228 L 88.524 24.500 83.445 38.000 C 80.652 45.425,75.079 60.388,71.062 71.250 L 63.759 91.000 57.461 91.000 C 53.997 91.000,50.452 91.273,49.582 91.607 C 48.158 92.153,48.000 88.709,48.000 57.107 L 48.000 22.000 56.500 22.000 L 65.000 22.000 65.000 11.500 L 65.000 1.000 32.500 1.000 L 0.000 1.000 0.000 11.500 L 0.000 22.000 8.000 22.000 L 16.000 22.000 16.000 57.000 L 16.000 92.000 8.000 92.000 L 0.000 92.000 0.000 102.000 L 0.000 112.000 27.500 112.000 C 42.625 112.000,55.000 112.389,55.000 112.864 C 55.000 113.339,53.427 117.952,51.505 123.114 C 49.583 128.276,48.008 132.838,48.005 133.250 C 48.002 133.662,55.139 134.000,63.864 134.000 L 79.728 134.000 81.274 129.750 C 82.124 127.412,83.801 122.453,84.999 118.728 L 87.178 111.957 105.773 112.228 L 124.368 112.500 127.900 123.250 L 131.432 134.000 148.191 134.000 L 164.950 134.000 163.873 131.250 C 163.280 129.738,161.259 124.293,159.380 119.151 C 157.501 114.008,155.475 108.887,154.876 107.769 C 153.940 106.020,154.265 106.100,157.213 108.349 C 167.380 116.104,184.779 115.967,197.285 108.035 C 203.199 104.284,203.000 104.268,203.000 108.500 L 203.000 112.000 218.000 112.000 L 233.000 112.000 233.020 104.250 L 233.039 96.500 236.455 100.572 C 243.234 108.654,260.266 114.128,279.000 114.244 C 294.094 114.338,316.000 109.710,316.000 106.426 C 316.000 105.505,317.538 106.187,320.421 108.388 C 331.003 116.465,352.976 115.731,364.090 106.928 L 368.000 103.832 368.000 107.916 L 368.000 112.000 382.538 112.000 L 397.076 112.000 396.788 78.163 L 396.500 44.325 393.540 40.056 C 385.000 27.738,353.795 22.282,325.500 28.160 L 318.500 29.614 318.215 40.421 L 317.930 51.227 321.215 50.743 C 323.022 50.476,328.100 49.237,332.500 47.990 C 348.473 43.460,362.987 45.206,366.544 52.085 C 368.913 56.667,368.515 57.000,360.669 57.000 C 346.100 57.000,327.731 61.495,320.101 66.928 L 317.291 68.929 316.689 61.117 C 315.835 50.050,312.814 42.683,306.565 36.435 C 290.737 20.607,251.778 21.948,236.916 38.833 L 233.000 43.282 233.000 21.641 L 233.000 0.000 218.000 0.000 L 203.000 0.000 203.000 15.376 M276.500 44.101 C 281.304 45.411,284.773 48.362,286.629 52.718 C 289.364 59.136,289.692 59.000,271.500 59.000 C 253.456 59.000,253.399 58.978,256.405 53.200 C 260.332 45.653,268.546 41.933,276.500 44.101 M201.066 48.035 C 202.876 49.004,203.000 50.314,203.000 68.515 L 203.000 87.959 198.750 90.176 C 181.383 99.234,167.132 83.257,173.387 61.742 C 176.884 49.711,191.070 42.686,201.066 48.035 M110.902 73.066 C 113.617 81.005,116.147 88.287,116.526 89.250 C 117.156 90.853,116.281 91.000,106.107 91.000 C 99.998 91.000,95.000 90.666,95.000 90.257 C 95.000 88.892,105.290 57.956,105.630 58.297 C 105.815 58.481,108.187 65.128,110.902 73.066 M367.988 81.250 L 367.975 89.500 364.238 91.957 C 354.542 98.332,341.000 94.782,341.000 85.866 C 341.000 79.123,345.766 76.067,359.500 74.002 C 368.696 72.618,368.001 72.025,367.988 81.250 M311.985 76.750 C 311.587 96.388,266.027 101.147,256.997 82.494 C 253.675 75.631,252.170 76.000,283.500 76.000 C 299.175 76.000,311.993 76.338,311.985 76.750 " stroke="none" fill="#14243b" fill-rule="evenodd"></path></g></svg>
