<svg xmlns="http://www.w3.org/2000/svg" xmlns:xlink="http://www.w3.org/1999/xlink" viewBox="-566 1095 1380 770"><defs><style>.a{clip-path:url(#ab);}.b{fill:#9bb8c7;opacity:0.092;}.c{fill:#333746;}.d,.m,.p{fill:#fff;}.aj,.e{fill:#15788c;}.f,.g{fill:#6f768d;}.f{font-size:19px;}.f,.k{font-family:Roboto-Regular, Roboto;}.aa,.h,.j,.q,.r,.z{fill:none;}.i,.l,.o,.u,.v,.w{fill:#1d788b;}.j{stroke:#cecfd0;stroke-miterlimit:10;stroke-width:0.5px;}.k{fill:#cecfd0;}.k,.o,.p,.x,.y{font-size:12px;}.aj,.l{font-size:15px;}.ag,.l,.o,.p,.x,.y{font-family:Roboto-Medium, Roboto;font-weight:500;}.m{opacity:0.574;}.n{fill:#e64b60;}.q{stroke:#ebebeb;}.r,.z{stroke:#e5e5e5;}.s{fill:#9bbcab;}.t{fill:#ebd1a0;}.u{opacity:0.7;}.v{opacity:0.4;}.w{opacity:0.2;}.ag,.x{fill:#5d5d5d;}.ab,.y{fill:#ccc;}.z{opacity:0.267;}.aa{stroke:#15788c;stroke-width:2px;}.ac{fill:rgba(0,0,0,0.36);}.ad{fill:#62aad0;}.ae{fill:#e151f4;}.af{fill:#3a987f;}.ag{font-size:10px;}.ah,.ai{fill:#dce6ea;}.ah{font-size:20px;}.ah,.aj{font-family:Roboto-Bold, Roboto;font-weight:700;}.ak{filter:url(#y);}.al{filter:url(#w);}.am{filter:url(#u);}.an{filter:url(#s);}.ao{filter:url(#q);}.ap{filter:url(#o);}.aq{filter:url(#m);}.ar{filter:url(#k);}.as{filter:url(#i);}.at{filter:url(#g);}.au{filter:url(#e);}.av{filter:url(#c);}.aw{filter:url(#a);}</style><filter id="a" x="323.5" y="1150.248" width="122.565" height="41.934" filterUnits="userSpaceOnUse"><feOffset dy="1" input="SourceAlpha"/><feGaussianBlur stdDeviation="1.5" result="b"/><feFlood flood-opacity="0.161"/><feComposite operator="in" in2="b"/><feComposite in="SourceGraphic"/></filter><filter id="c" x="442.993" y="1147.748" width="127.565" height="50.934" filterUnits="userSpaceOnUse"><feOffset dy="3" input="SourceAlpha"/><feGaussianBlur stdDeviation="3" result="d"/><feFlood flood-opacity="0.161"/><feComposite operator="in" in2="d"/><feComposite in="SourceGraphic"/></filter><filter id="e" x="-287" y="1198" width="62.077" height="62.077" filterUnits="userSpaceOnUse"><feOffset dy="3" input="SourceAlpha"/><feGaussianBlur stdDeviation="3" result="f"/><feFlood flood-opacity="0.161"/><feComposite operator="in" in2="f"/><feComposite in="SourceGraphic"/></filter><filter id="g" x="519" y="1198" width="56" height="56" filterUnits="userSpaceOnUse"><feOffset dy="3" input="SourceAlpha"/><feGaussianBlur stdDeviation="3" result="h"/><feFlood flood-opacity="0.161"/><feComposite operator="in" in2="h"/><feComposite in="SourceGraphic"/></filter><filter id="i" x="519" y="1245" width="56" height="56" filterUnits="userSpaceOnUse"><feOffset dy="3" input="SourceAlpha"/><feGaussianBlur stdDeviation="3" result="j"/><feFlood flood-opacity="0.161"/><feComposite operator="in" in2="j"/><feComposite in="SourceGraphic"/></filter><filter id="k" x="575.5" y="1238.5" width="122.565" height="41.934" filterUnits="userSpaceOnUse"><feOffset dy="1" input="SourceAlpha"/><feGaussianBlur stdDeviation="1.5" result="l"/><feFlood flood-opacity="0.161"/><feComposite operator="in" in2="l"/><feComposite in="SourceGraphic"/></filter><filter id="m" x="690.993" y="1235.748" width="127.565" height="50.934" filterUnits="userSpaceOnUse"><feOffset dy="3" input="SourceAlpha"/><feGaussianBlur stdDeviation="3" result="n"/><feFlood flood-opacity="0.161"/><feComposite operator="in" in2="n"/><feComposite in="SourceGraphic"/></filter><filter id="o" x="-129" y="1198" width="56" height="56" filterUnits="userSpaceOnUse"><feOffset dy="3" input="SourceAlpha"/><feGaussianBlur stdDeviation="3" result="p"/><feFlood flood-opacity="0.161"/><feComposite operator="in" in2="p"/><feComposite in="SourceGraphic"/></filter><filter id="q" x="-129" y="1245" width="56" height="56" filterUnits="userSpaceOnUse"><feOffset dy="3" input="SourceAlpha"/><feGaussianBlur stdDeviation="3" result="r"/><feFlood flood-opacity="0.161"/><feComposite operator="in" in2="r"/><feComposite in="SourceGraphic"/></filter><filter id="s" x="472" y="1748" width="56" height="56" filterUnits="userSpaceOnUse"><feOffset dy="3" input="SourceAlpha"/><feGaussianBlur stdDeviation="3" result="t"/><feFlood flood-opacity="0.161"/><feComposite operator="in" in2="t"/><feComposite in="SourceGraphic"/></filter><filter id="u" x="519" y="1748" width="56" height="56" filterUnits="userSpaceOnUse"><feOffset dy="3" input="SourceAlpha"/><feGaussianBlur stdDeviation="3" result="v"/><feFlood flood-opacity="0.161"/><feComposite operator="in" in2="v"/><feComposite in="SourceGraphic"/></filter><filter id="w" x="-72" y="1198" width="62.077" height="62.077" filterUnits="userSpaceOnUse"><feOffset dy="3" input="SourceAlpha"/><feGaussianBlur stdDeviation="3" result="x"/><feFlood flood-opacity="0.161"/><feComposite operator="in" in2="x"/><feComposite in="SourceGraphic"/></filter><filter id="y" x="-287" y="1746" width="62.077" height="62.077" filterUnits="userSpaceOnUse"><feOffset dy="3" input="SourceAlpha"/><feGaussianBlur stdDeviation="3" result="z"/><feFlood flood-opacity="0.161"/><feComposite operator="in" in2="z"/><feComposite in="SourceGraphic"/></filter><clipPath id="ab"><rect x="-566" y="1095" width="1380" height="770"/></clipPath></defs><g id="aa" class="a"><rect class="d" x="-566" y="1095" width="1380" height="770"/><g transform="translate(-566 1095)"><rect class="b" width="865" height="671" transform="translate(276 99)"/></g><g transform="translate(-566 1095)"><rect class="c" width="278.186" height="770.81" transform="translate(-0.502 -0.32)"/></g><g transform="translate(-566 1035)"><rect class="d" width="279" height="61" transform="translate(0 290)"/><rect class="e" width="4" height="61" transform="translate(0 290)"/></g><g transform="translate(-566 995)"><g transform="translate(84.52 142.839)"><text class="f" transform="translate(0.001 87.117)"><tspan x="0" y="0">Campaigns</tspan></text><text class="f" transform="translate(0.001 156.234)"><tspan x="0" y="0">Screens</tspan></text><text class="f" transform="translate(0.001 225.351)"><tspan x="0" y="0">Ads</tspan></text><text class="f" transform="translate(0.001 294.468)"><tspan x="0" y="0">App Store</tspan></text><text class="f" transform="translate(0 363.585)"><tspan x="0" y="0">Content Library</tspan></text><text class="f" transform="translate(0 432.702)"><tspan x="0" y="0">Monitoring</tspan></text><text class="f" transform="translate(0 501.819)"><tspan x="0" y="0">Help</tspan></text></g><g transform="translate(35.02 145.9)"><path class="g" d="M42.918,330H22.511a2.251,2.251,0,0,0-2.211,2.211v13.6a2.251,2.251,0,0,0,2.211,2.211h5.612v2.211h9.013v-2.211h5.612a2.251,2.251,0,0,0,2.211-2.211v-13.6A2.008,2.008,0,0,0,42.918,330Zm0,15.815H22.511v-13.6H42.918Zm-2.381-10.2H28.123v2.211H40.537Zm0,4.592H28.123v2.211H40.537Zm-13.6-4.592H24.722v2.211h2.211Zm0,4.592H24.722v2.211h2.211Z" transform="translate(-20.3 85.285)"/><path class="g" d="M20.6,225.046h7.483v-8.673H20.6Zm8.673,0H44.238v-8.673H29.273ZM20.6,207.7v7.483H44.238V207.7Z" transform="translate(-20.09 -0.397)"/><path class="g" d="M42.918,289.3H22.511a2.376,2.376,0,0,0-2.211,2.211v15.815a2.251,2.251,0,0,0,2.211,2.211H42.918a2.376,2.376,0,0,0,2.211-2.211V291.511A2.376,2.376,0,0,0,42.918,289.3Zm-18.2,15.816,3.911-5.1,2.891,3.4,3.911-5.1,5.1,6.8Z" transform="translate(-20.3 56.771)"/><path class="g" d="M40.277,168.5H23.271a1.887,1.887,0,0,0-1.871,1.871v2.891h1.871v-2.891H40.277v13.265H33.644v1.871h6.632a1.887,1.887,0,0,0,1.871-1.871V170.371A1.784,1.784,0,0,0,40.277,168.5ZM21.57,182.615v2.891h2.891A2.976,2.976,0,0,0,21.57,182.615Zm0-3.911v1.871a4.753,4.753,0,0,1,4.762,4.762H28.2A6.872,6.872,0,0,0,21.57,178.7Zm0-3.741v1.871a8.42,8.42,0,0,1,8.5,8.5h1.871A10.528,10.528,0,0,0,21.57,174.962Z" transform="translate(-19.529 -27.861)"/><path class="g" d="M27.752,263.975a1.871,1.871,0,1,0,1.871,1.871A1.887,1.887,0,0,0,27.752,263.975ZM21.8,248.5v1.871h2.041l3.4,7.483-1.36,2.381a1.533,1.533,0,0,0-.17.85,1.887,1.887,0,0,0,1.871,1.871H39.316v-1.871H28.092a.167.167,0,0,1-.17-.17v-.17l.85-1.531h7.313a1.87,1.87,0,0,0,1.7-1.02l3.4-6.292c0-.17.17-.34.17-.51a1.1,1.1,0,0,0-1.02-1.02H26.051L25.2,248.5Zm15.645,15.475a1.871,1.871,0,1,0,1.871,1.871A1.887,1.887,0,0,0,37.445,263.975Z" transform="translate(-19.249 28.187)"/><path class="g" d="M30.983,385.7h2.041v-2.041H30.983ZM32,369.2a10.2,10.2,0,1,0,10.2,10.2A10.234,10.234,0,0,0,32,369.2Zm0,18.366a8.163,8.163,0,1,1,8.163-8.163A8.165,8.165,0,0,1,32,387.566Zm0-14.285a4.138,4.138,0,0,0-4.081,4.081h2.041a2.041,2.041,0,1,1,4.081,0c0,2.041-3.061,1.871-3.061,5.1h2.041c0-2.211,3.061-2.551,3.061-5.1A4.138,4.138,0,0,0,32,373.281Z" transform="translate(-19.249 112.749)"/><path class="g" d="M25.941,148.088h8.333v-2.041H25.941ZM34.274,125.3H25.941a1.965,1.965,0,0,0-2.041,2.041v14.625a1.965,1.965,0,0,0,2.041,2.041h8.333a1.965,1.965,0,0,0,2.041-2.041V127.341A1.965,1.965,0,0,0,34.274,125.3Zm0,14.455H25.941V129.381h8.333Z" transform="translate(-17.778 -58.127)"/></g></g><path class="h" d="M197.4,8.6h40.814V49.414H197.4Z" transform="translate(-427.205 1101.014)"/><path class="i" d="M201.4,22.923h13.235V21.414H201.4Zm0-3.715h13.235V17.7H201.4Zm0-5.108v1.509h13.235V14.1Z" transform="translate(-477.895 1100.9)"/><path class="i" d="M773,15.2V26.765a1.7,1.7,0,0,0,1.7,1.7h11.564a1.7,1.7,0,0,0,1.7-1.7V15.2a1.7,1.7,0,0,0-1.7-1.7H774.7A1.607,1.607,0,0,0,773,15.2Zm9.863,3.231a2.551,2.551,0,1,1-2.551-2.551A2.615,2.615,0,0,1,782.863,18.432Zm-7.312,6.632c0-1.7,3.4-2.551,4.932-2.551s4.932.85,4.932,2.551v.85h-9.863v-.85Z" transform="translate(12.594 1098.5)"/><path class="h" d="M771.5,15.8h19.9V35.7H771.5Z" transform="translate(-24.993 1106.058)"/><g transform="translate(-596.72 1080)"><line class="j" x2="164.958" transform="translate(320.72 94.032)"/><text class="k" transform="translate(325.595 88.083)"><tspan x="0" y="0">Name</tspan></text></g><text class="l" transform="translate(13 1172.617)"><tspan x="0" y="0">Duration: 5s</tspan></text><g transform="translate(-613.948 1079)"><path class="i" d="M415.193,50.349a9.5,9.5,0,0,0-6.081,2.263L406,49.5v7.779h7.92l-3.112-3.112a7.439,7.439,0,0,1,4.526-1.7,7.009,7.009,0,0,1,6.647,4.809l2.122-.707A9.5,9.5,0,0,0,415.193,50.349Z" transform="translate(393.948 36.394)"/><path class="i" d="M422,56.513l2.122.707a6.878,6.878,0,0,1,6.647-4.809,6.672,6.672,0,0,1,4.526,1.7l-3.112,3.111h7.92V49.3l-3.111,3.111a8.95,8.95,0,0,0-6.082-2.263A9.4,9.4,0,0,0,422,56.513Z" transform="translate(400.577 36.311)"/></g><g transform="translate(-607.592 1080)"><g class="aw" transform="matrix(1, 0, 0, 1, 607.59, -1080)"><rect class="m" width="113.565" height="32.934" rx="1" transform="translate(328 1153.75)"/></g></g><g transform="translate(-555.185 1095)"><g transform="translate(-24.592 -14)"><g class="av" transform="matrix(1, 0, 0, 1, 579.78, -1081)"><rect class="n" width="109.565" height="32.934" rx="1" transform="translate(451.99 1153.75)"/></g></g></g><text class="o" transform="translate(385.21 1174.533)"><tspan x="-25.219" y="0">PREVIEW</tspan></text><text class="p" transform="translate(507.21 1174.533)"><tspan x="-39.618" y="0">SAVE &amp; CLOSE</tspan></text><line class="q" x2="861.816" transform="translate(-287.316 1193.5)"/><line class="q" y1="724" transform="translate(574.5 1141.5)"/><line class="r" x2="1101.816" transform="translate(-287.316 1141.5)"/><g transform="translate(-586 1094)"><g transform="translate(99.353 27)"><path class="d" d="M-261.559,305.675h-3.285a.138.138,0,0,1-.156-.156V273.3a.138.138,0,0,1,.156-.156h3.285a.138.138,0,0,1,.156.156v1.929a9.332,9.332,0,0,1,6-2.086h9.542q3.911,0,5.162,4.223a11.859,11.859,0,0,1,.052,1.251v14.912a5.113,5.113,0,0,1-3.7,5.214,4.63,4.63,0,0,1-1.668.209h-9.229a9.554,9.554,0,0,1-6.153-2.086v8.655A.138.138,0,0,1-261.559,305.675Zm17.311-12.1V278.561a1.6,1.6,0,0,0-1.408-1.773h-9.8c-2.607,0-4.484,1.356-5.579,4.067a6.726,6.726,0,0,0-.313,2.086v6.048a5.81,5.81,0,0,0,4.171,6.048,4.957,4.957,0,0,0,1.825.313h9.594c.886,0,1.408-.574,1.512-1.773Zm7.56-26.018h3.285a.138.138,0,0,1,.156.156v3.859a.138.138,0,0,1-.156.156h-3.285a.138.138,0,0,1-.156-.156v-3.859Q-236.766,267.56-236.688,267.56Zm0,6.2h3.285a.138.138,0,0,1,.156.156v25.027a.138.138,0,0,1-.156.156h-3.285a.138.138,0,0,1-.156-.156V273.921Q-236.766,273.765-236.688,273.765Zm6.465-1.043h4.015l6.935,8.655c4.223-5.37,6.518-8.29,6.935-8.655h4.067v.156c-5.527,7.143-8.5,10.95-8.812,11.419,6.257,9.072,9.542,13.922,9.959,14.651H-211.3c-.626-.73-2.92-4.171-6.987-10.272a6.189,6.189,0,0,0-1.095-1.46c0,.1-2.607,4.067-7.769,11.732h-4.171V298.9l9.8-14.6-8.916-11.523Zm30.711.365h15.225q4.223,0,5.318,4.38a10.475,10.475,0,0,1,.052,1.3v6.987a.138.138,0,0,1-.156.156h-22.055v7.925c.156.991.626,1.46,1.46,1.46h18.353a.138.138,0,0,1,.156.156v3.285a.138.138,0,0,1-.156.156h-18.249c-2.4,0-4.067-1.3-5.005-3.858a3.969,3.969,0,0,1-.156-1.095V277.988c0-2.19,1.3-3.754,3.858-4.745a6.366,6.366,0,0,1,1.356-.156Zm-1.616,9.125h18.562v-3.754c-.1-1.2-.626-1.773-1.512-1.773h-15.381c-1.147.1-1.668.573-1.668,1.408Zm26.175-15.225h3.285a.138.138,0,0,1,.156.156V298.9a.138.138,0,0,1-.156.156h-3.285a.138.138,0,0,1-.156-.156V267.143A.138.138,0,0,1-174.953,266.986Zm25.027,6.048c3.806,1.981,5.683,4.9,5.683,8.76v12.827a4.685,4.685,0,0,0-.156.626Q-145.963,299-149.248,299H-159a9.374,9.374,0,0,1-7.821-4.067c-1.2-1.408-1.773-3.754-1.773-7.039v-4.849a.138.138,0,0,1,.156-.156h20.6V281.9a4.632,4.632,0,0,0-.209-1.668c-1.043-2.868-2.92-4.276-5.631-4.276h-9.8q-1.408.235-1.408,1.408v.521a.138.138,0,0,1-.156.156h-3.389l-.156-.052a6.061,6.061,0,0,1,.313-2.086c.938-2.346,2.555-3.545,4.849-3.545h9.75a8.7,8.7,0,0,1,3.754.678Zm-14.964,13.452v3.389a6.776,6.776,0,0,0,.209,1.46c1.147,2.711,3.076,4.067,5.735,4.067h9.594c.782,0,1.3-.469,1.46-1.46v-7.456Zm23.1-14.287h3.285a.138.138,0,0,1,.156.156v1.825a9.357,9.357,0,0,1,5.579-1.981h5.058c2.086,0,3.6,1.251,4.693,3.7l.156.991-.156.052h-3.337c-.469-.782-.939-1.147-1.408-1.147h-4.8c-2.659,0-4.536,1.46-5.631,4.432a9.3,9.3,0,0,0-.156,1.46v17.05a.138.138,0,0,1-.156.156h-3.285a.138.138,0,0,1-.156-.156V272.3C-141.948,272.253-141.9,272.2-141.792,272.2Zm22.055-6.1h3.285a.138.138,0,0,1,.156.156v3.7h3.6a.138.138,0,0,1,.156.156v2.711a.138.138,0,0,1-.156.156h-3.6V294.2c0,.73.574,1.2,1.668,1.3H-114a.138.138,0,0,1,.156.156v3.285a.138.138,0,0,1-.156.156h-.678c-2.5,0-4.223-1.356-5.162-4.015a5.4,5.4,0,0,1-.052-.834V273.087a.138.138,0,0,0-.156-.156h-2.034a.138.138,0,0,1-.156-.156v-2.711a.138.138,0,0,1,.156-.156h2.19v-3.7C-119.893,266.152-119.841,266.1-119.737,266.1Z" transform="translate(265 -266.1)"/></g><g transform="translate(61.812 31.536)"><path class="s" d="M-304.2,279.6h13.609v13.609H-304.2Z" transform="translate(321.302 -277.097)"/><path class="t" d="M-304.2,307.6h13.609v13.609H-304.2Z" transform="translate(321.302 -290.498)"/><path class="n" d="M-332.1,307.6h13.609v13.609H-332.1Z" transform="translate(334.655 -290.498)"/><path class="u" d="M-319.8,277h3.285v3.285H-319.8Z" transform="translate(328.768 -275.853)"/><path class="v" d="M-328,275.8h3.285v3.285H-328Zm0,4.223h3.285v3.285H-328Z" transform="translate(332.693 -275.279)"/><path class="w" d="M-337,274.8h3.285v3.285H-337Z" transform="translate(337 -274.8)"/><path class="u" d="M-327.075,291.9h3.285v3.285h-3.285Zm-3.963,0h3.285v3.285h-3.285Zm-3.963,0h3.285v3.285H-335Z" transform="translate(336.043 -282.984)"/><path class="i" d="M-312.3,285.7h3.285v3.285H-312.3Z" transform="translate(325.179 -280.017)"/><path class="v" d="M-336.1,283.9h3.285v3.285H-336.1Z" transform="translate(336.569 -279.155)"/><path class="u" d="M-319.8,284.5h3.285v3.285H-319.8Z" transform="translate(328.768 -279.442)"/><path class="i" d="M-322.255,278.7h3.285v3.285h-3.285Zm0,7.143h3.285v3.285h-3.285Zm-7.2,3.65h3.285v3.285h-3.285Zm3.6,0h3.285v3.285h-3.285Zm-7.248,0h3.285v3.285H-333.1Zm10.845,0h3.285v3.285h-3.285Z" transform="translate(335.133 -276.667)"/></g></g><g transform="translate(-574 1095)"><g transform="translate(296 109)"><g class="au" transform="matrix(1, 0, 0, 1, 278, -1204)"><circle class="n" cx="22.038" cy="22.038" r="22.038" transform="translate(-278 1204)"/></g></g><g transform="translate(305.752 118.752)"><path class="h" d="M0,0H28.5V28.5H0Z"/></g><g transform="translate(308 120)"><path class="d" d="M3,17.25V21H6.75L17.81,9.94,14.06,6.19ZM20.71,7.04a1,1,0,0,0,0-1.41L18.37,3.29a1,1,0,0,0-1.41,0L15.13,5.12l3.75,3.75,1.83-1.83Z" transform="translate(-2 -2)"/><path class="h" d="M0,0H24V24H0Z"/></g></g><g transform="translate(-562 1094)"><g transform="translate(98 -27)"><g class="at" transform="matrix(1, 0, 0, 1, 464, -1067)"><circle class="e" cx="19" cy="19" r="19" transform="translate(528 1204)"/></g><g transform="translate(999.721 144.721)"><path class="d" d="M3,8.64H4.88V6.76H3ZM3,4.88H4.88V3H3ZM6.76,19.919H8.64v-1.88H6.76Zm0-7.52H8.64V10.52H6.76ZM3,12.4H4.88V10.52H3Zm0,7.52H4.88v-1.88H3Zm0-3.76H4.88v-1.88H3ZM6.76,4.88H8.64V3H6.76ZM18.039,16.159h1.88v-1.88h-1.88Zm-7.52,3.76H12.4V3H10.52Zm7.52,0h1.88v-1.88h-1.88Zm0-7.52h1.88V10.52h-1.88Zm0-9.4V4.88h1.88V3Zm0,5.64h1.88V6.76h-1.88Zm-3.76-3.76h1.88V3h-1.88Zm0,15.039h1.88v-1.88h-1.88Zm0-7.52h1.88V10.52h-1.88Z" transform="translate(-0.18 -0.18)"/><path class="h" d="M0,0H22.559V22.559H0Z"/></g></g><g transform="translate(1265 -835) rotate(90)"><g class="as" transform="matrix(0, -1, 1, 0, -259, 703)"><circle class="e" cx="19" cy="19" r="19" transform="translate(566 1251) rotate(90)"/></g><g transform="translate(999.721 144.721)"><path class="d" d="M3,8.64H4.88V6.76H3ZM3,4.88H4.88V3H3ZM6.76,19.919H8.64v-1.88H6.76Zm0-7.52H8.64V10.52H6.76ZM3,12.4H4.88V10.52H3Zm0,7.52H4.88v-1.88H3Zm0-3.76H4.88v-1.88H3ZM6.76,4.88H8.64V3H6.76ZM18.039,16.159h1.88v-1.88h-1.88Zm-7.52,3.76H12.4V3H10.52Zm7.52,0h1.88v-1.88h-1.88Zm0-7.52h1.88V10.52h-1.88Zm0-9.4V4.88h1.88V3Zm0,5.64h1.88V6.76h-1.88Zm-3.76-3.76h1.88V3h-1.88Zm0,15.039h1.88v-1.88h-1.88Zm0-7.52h1.88V10.52h-1.88Z" transform="translate(-0.18 -0.18)"/><path class="h" d="M0,0H22.559V22.559H0Z"/></g></g></g><g transform="translate(-566 1095)"><text class="x" transform="translate(1163 69)"><tspan x="0" y="0">Layers</tspan></text><text class="y" transform="translate(1163 114)"><tspan x="0" y="0">Search</tspan></text><line class="r" x2="240" transform="translate(1140.5 82.5)"/><line class="r" x2="208" transform="translate(1158.5 121.5)"/><line class="z" x2="231" transform="translate(1144.5 237.5)"/><line class="z" x2="231" transform="translate(1145.5 268.5)"/><line class="z" x2="231" transform="translate(1144.5 300.5)"/><line class="z" x2="231" transform="translate(1144.5 331.5)"/><text class="x" transform="translate(1249 69)"><tspan x="0" y="0">Content Library</tspan></text><line class="aa" x2="83" transform="translate(1249.5 82.5)"/><path class="ab" d="M12.1,10.645,9.314,7.752A4.717,4.717,0,1,0,5.7,9.437a4.668,4.668,0,0,0,2.7-.854l2.8,2.915a.615.615,0,1,0,.887-.853ZM5.7,1.231A3.488,3.488,0,1,1,2.215,4.719,3.492,3.492,0,0,1,5.7,1.231Z" transform="translate(1143.873 104.64)"/><g transform="translate(210.408 73.252)"><g class="ar" transform="matrix(1, 0, 0, 1, 355.59, -1168.25)"><rect class="m" width="113.565" height="32.934" rx="1" transform="translate(580 1242)"/></g></g><g transform="translate(30 -33)"><g class="aq" transform="matrix(1, 0, 0, 1, 536, -1062)"><rect class="e" width="109.565" height="32.934" rx="1" transform="translate(699.99 1241.75)"/></g></g><text class="o" transform="translate(1209.21 167.533)"><tspan x="-42.621" y="0">UPLOAD ASSET</tspan></text><text class="p" transform="translate(1332.21 167.533)"><tspan x="-31.617" y="0">APP STORE</tspan></text><path class="d" d="M25.927,259.231a1.3,1.3,0,1,0,1.3,1.3A1.309,1.309,0,0,0,25.927,259.231ZM21.8,248.5v1.3h1.415l2.358,5.189-.943,1.651a1.063,1.063,0,0,0-.118.59,1.309,1.309,0,0,0,1.3,1.3h8.137v-1.3H26.163a.115.115,0,0,1-.118-.118v-.118l.59-1.061h5.071a1.3,1.3,0,0,0,1.179-.708l2.358-4.363c0-.118.118-.236.118-.354a.761.761,0,0,0-.708-.708H24.748l-.59-1.3Zm10.849,10.731a1.3,1.3,0,1,0,1.3,1.3A1.309,1.309,0,0,0,32.649,259.231Z" transform="translate(1256.769 -91.967)"/><g transform="translate(1146.79 152.79)"><path class="h" d="M0,0H22.42V22.42H0Z"/><path class="e" d="M7.811,12.137h4.217V7.92H14.84L9.92,3,5,7.92H7.811ZM5,13.543h9.84v1.406H5Z" transform="translate(1.29 1.769)"/></g><g transform="translate(1147 207)"><path class="h" d="M0,0H24V24H0Z"/><path class="ac" d="M0,20H24v4H0Z"/><path d="M11,3,5.5,17H7.75l1.12-3h6.25l1.12,3h2.25L13,3ZM9.62,12,12,5.67,14.38,12Z"/></g><g transform="translate(1147 241)"><path class="ad" d="M13,13v8h8V13ZM3,21h8V13H3ZM3,3v8h8V3ZM16.66,1.69,11,7.34,16.66,13l5.66-5.66Z"/><path class="h" d="M0,0H24V24H0Z"/></g><g transform="translate(1147 273)"><path class="h" d="M0,0H24V24H0Z"/><path class="ae" d="M11.99,2A10,10,0,1,0,22,12,10,10,0,0,0,11.99,2Zm6.93,6H15.97a15.649,15.649,0,0,0-1.38-3.56A8.03,8.03,0,0,1,18.92,8ZM12,4.04A14.087,14.087,0,0,1,13.91,8H10.09A14.087,14.087,0,0,1,12,4.04ZM4.26,14a7.822,7.822,0,0,1,0-4H7.64a16.515,16.515,0,0,0-.14,2,16.515,16.515,0,0,0,.14,2Zm.82,2H8.03a15.649,15.649,0,0,0,1.38,3.56A7.987,7.987,0,0,1,5.08,16ZM8.03,8H5.08A7.987,7.987,0,0,1,9.41,4.44,15.649,15.649,0,0,0,8.03,8ZM12,19.96A14.087,14.087,0,0,1,10.09,16h3.82A14.087,14.087,0,0,1,12,19.96ZM14.34,14H9.66a14.713,14.713,0,0,1-.16-2,14.585,14.585,0,0,1,.16-2h4.68a14.585,14.585,0,0,1,.16,2A14.713,14.713,0,0,1,14.34,14Zm.25,5.56A15.649,15.649,0,0,0,15.97,16h2.95A8.03,8.03,0,0,1,14.59,19.56ZM16.36,14a16.515,16.515,0,0,0,.14-2,16.515,16.515,0,0,0-.14-2h3.38a7.822,7.822,0,0,1,0,4Z"/></g><g transform="translate(1147 303)"><path class="af" d="M8,5V19l11-7Z"/><path class="h" d="M0,0H24V24H0Z"/></g><g transform="translate(1362 217)"><path class="n" d="M10.816,5.586,10.23,5,7.908,7.322,5.586,5,5,5.586,7.322,7.908,5,10.23l.586.586L7.908,8.494l2.322,2.322.586-.586L8.494,7.908Z" transform="translate(-2.923 -2.923)"/><path class="h" d="M0,0H9.971V9.971H0Z"/></g><g transform="translate(1362 248)"><path class="n" d="M10.816,5.586,10.23,5,7.908,7.322,5.586,5,5,5.586,7.322,7.908,5,10.23l.586.586L7.908,8.494l2.322,2.322.586-.586L8.494,7.908Z" transform="translate(-2.923 -2.923)"/><path class="h" d="M0,0H9.971V9.971H0Z"/></g><g transform="translate(1362 279)"><path class="n" d="M10.816,5.586,10.23,5,7.908,7.322,5.586,5,5,5.586,7.322,7.908,5,10.23l.586.586L7.908,8.494l2.322,2.322.586-.586L8.494,7.908Z" transform="translate(-2.923 -2.923)"/><path class="h" d="M0,0H9.971V9.971H0Z"/></g><g transform="translate(1362 310)"><path class="n" d="M10.816,5.586,10.23,5,7.908,7.322,5.586,5,5,5.586,7.322,7.908,5,10.23l.586.586L7.908,8.494l2.322,2.322.586-.586L8.494,7.908Z" transform="translate(-2.923 -2.923)"/><path class="h" d="M0,0H9.971V9.971H0Z"/></g><text class="ag" transform="translate(1185 224)"><tspan x="0" y="0">Text Widget</tspan></text><text class="ag" transform="translate(1185 256)"><tspan x="0" y="0">Application</tspan></text><text class="ag" transform="translate(1185 288)"><tspan x="0" y="0">Web</tspan></text><text class="ag" transform="translate(1185 320)"><tspan x="0" y="0">Video</tspan></text></g><g transform="translate(-446 1027.819)"><text class="ah" transform="translate(611 447)"><tspan x="0" y="0">Drag &amp; Drop file</tspan></text><g transform="translate(659.181 389.181)"><path class="ai" d="M31.622,20.212H20.212V31.622h-3.8V20.212H5v-3.8H16.409V5h3.8V16.409H31.622Z" transform="translate(4.508 4.508)"/><path class="h" d="M0,0H45.637V45.637H0Z"/></g></g><g transform="translate(-519 1379.819)"><text class="ah" transform="translate(611 447)"><tspan x="0" y="0">Drag &amp; Drop file</tspan></text><g transform="translate(659.181 389.181)"><path class="ai" d="M31.622,20.212H20.212V31.622h-3.8V20.212H5v-3.8H16.409V5h3.8V16.409H31.622Z" transform="translate(4.508 4.508)"/><path class="h" d="M0,0H45.637V45.637H0Z"/></g></g><g transform="translate(-863 1018.819)"><text class="ah" transform="translate(611 447)"><tspan x="0" y="0">Drag &amp; Drop file</tspan></text><g transform="translate(659.181 389.181)"><path class="ai" d="M31.622,20.212H20.212V31.622h-3.8V20.212H5v-3.8H16.409V5h3.8V16.409H31.622Z" transform="translate(4.508 4.508)"/><path class="h" d="M0,0H45.637V45.637H0Z"/></g></g><text class="aj" transform="translate(769 1125)"><tspan x="-55.62" y="0">Jonh Do</tspan></text><rect class="e" width="862" height="3" transform="translate(-288.3 1745)"/><rect class="e" width="554" height="3" transform="translate(-70.8 1193.5) rotate(90)"/><g transform="translate(-1210 1094)"><g transform="translate(98 -27)"><g class="ap" transform="matrix(1, 0, 0, 1, 1112, -1067)"><circle class="e" cx="19" cy="19" r="19" transform="translate(-120 1204)"/></g><g transform="translate(999.721 144.721)"><path class="d" d="M3,8.64H4.88V6.76H3ZM3,4.88H4.88V3H3ZM6.76,19.919H8.64v-1.88H6.76Zm0-7.52H8.64V10.52H6.76ZM3,12.4H4.88V10.52H3Zm0,7.52H4.88v-1.88H3Zm0-3.76H4.88v-1.88H3ZM6.76,4.88H8.64V3H6.76ZM18.039,16.159h1.88v-1.88h-1.88Zm-7.52,3.76H12.4V3H10.52Zm7.52,0h1.88v-1.88h-1.88Zm0-7.52h1.88V10.52h-1.88Zm0-9.4V4.88h1.88V3Zm0,5.64h1.88V6.76h-1.88Zm-3.76-3.76h1.88V3h-1.88Zm0,15.039h1.88v-1.88h-1.88Zm0-7.52h1.88V10.52h-1.88Z" transform="translate(-0.18 -0.18)"/><path class="h" d="M0,0H22.559V22.559H0Z"/></g></g><g transform="translate(1265 -835) rotate(90)"><g class="ao" transform="matrix(0, -1, 1, 0, -259, 55)"><circle class="e" cx="19" cy="19" r="19" transform="translate(-82 1251) rotate(90)"/></g><g transform="translate(999.721 144.721)"><path class="d" d="M3,8.64H4.88V6.76H3ZM3,4.88H4.88V3H3ZM6.76,19.919H8.64v-1.88H6.76Zm0-7.52H8.64V10.52H6.76ZM3,12.4H4.88V10.52H3Zm0,7.52H4.88v-1.88H3Zm0-3.76H4.88v-1.88H3ZM6.76,4.88H8.64V3H6.76ZM18.039,16.159h1.88v-1.88h-1.88Zm-7.52,3.76H12.4V3H10.52Zm7.52,0h1.88v-1.88h-1.88Zm0-7.52h1.88V10.52h-1.88Zm0-9.4V4.88h1.88V3Zm0,5.64h1.88V6.76h-1.88Zm-3.76-3.76h1.88V3h-1.88Zm0,15.039h1.88v-1.88h-1.88Zm0-7.52h1.88V10.52h-1.88Z" transform="translate(-0.18 -0.18)"/><path class="h" d="M0,0H22.559V22.559H0Z"/></g></g></g><g transform="translate(-511 1617)"><g class="an" transform="matrix(1, 0, 0, 1, 511, -1617)"><circle class="e" cx="19" cy="19" r="19" transform="translate(481 1754)"/></g><g transform="translate(999.721 144.721)"><path class="d" d="M3,8.64H4.88V6.76H3ZM3,4.88H4.88V3H3ZM6.76,19.919H8.64v-1.88H6.76Zm0-7.52H8.64V10.52H6.76ZM3,12.4H4.88V10.52H3Zm0,7.52H4.88v-1.88H3Zm0-3.76H4.88v-1.88H3ZM6.76,4.88H8.64V3H6.76ZM18.039,16.159h1.88v-1.88h-1.88Zm-7.52,3.76H12.4V3H10.52Zm7.52,0h1.88v-1.88h-1.88Zm0-7.52h1.88V10.52h-1.88Zm0-9.4V4.88h1.88V3Zm0,5.64h1.88V6.76h-1.88Zm-3.76-3.76h1.88V3h-1.88Zm0,15.039h1.88v-1.88h-1.88Zm0-7.52h1.88V10.52h-1.88Z" transform="translate(-0.18 -0.18)"/><path class="h" d="M0,0H22.559V22.559H0Z"/></g></g><g transform="translate(703 762) rotate(90)"><g class="am" transform="matrix(0, -1, 1, 0, -762, 703)"><circle class="e" cx="19" cy="19" r="19" transform="translate(566 1754) rotate(90)"/></g><g transform="translate(999.721 144.721)"><path class="d" d="M3,8.64H4.88V6.76H3ZM3,4.88H4.88V3H3ZM6.76,19.919H8.64v-1.88H6.76Zm0-7.52H8.64V10.52H6.76ZM3,12.4H4.88V10.52H3Zm0,7.52H4.88v-1.88H3Zm0-3.76H4.88v-1.88H3ZM6.76,4.88H8.64V3H6.76ZM18.039,16.159h1.88v-1.88h-1.88Zm-7.52,3.76H12.4V3H10.52Zm7.52,0h1.88v-1.88h-1.88Zm0-7.52h1.88V10.52h-1.88Zm0-9.4V4.88h1.88V3Zm0,5.64h1.88V6.76h-1.88Zm-3.76-3.76h1.88V3h-1.88Zm0,15.039h1.88v-1.88h-1.88Zm0-7.52h1.88V10.52h-1.88Z" transform="translate(-0.18 -0.18)"/><path class="h" d="M0,0H22.559V22.559H0Z"/></g></g><g transform="translate(-359 1095)"><g transform="translate(296 109)"><g class="al" transform="matrix(1, 0, 0, 1, 63, -1204)"><circle class="n" cx="22.038" cy="22.038" r="22.038" transform="translate(-63 1204)"/></g></g><g transform="translate(305.752 118.752)"><path class="h" d="M0,0H28.5V28.5H0Z"/></g><g transform="translate(308 120)"><path class="d" d="M3,17.25V21H6.75L17.81,9.94,14.06,6.19ZM20.71,7.04a1,1,0,0,0,0-1.41L18.37,3.29a1,1,0,0,0-1.41,0L15.13,5.12l3.75,3.75,1.83-1.83Z" transform="translate(-2 -2)"/><path class="h" d="M0,0H24V24H0Z"/></g></g><g transform="translate(-574 1643)"><g transform="translate(296 109)"><g class="ak" transform="matrix(1, 0, 0, 1, 278, -1752)"><circle class="n" cx="22.038" cy="22.038" r="22.038" transform="translate(-278 1752)"/></g></g><g transform="translate(305.752 118.752)"><path class="h" d="M0,0H28.5V28.5H0Z"/></g><g transform="translate(308 120)"><path class="d" d="M3,17.25V21H6.75L17.81,9.94,14.06,6.19ZM20.71,7.04a1,1,0,0,0,0-1.41L18.37,3.29a1,1,0,0,0-1.41,0L15.13,5.12l3.75,3.75,1.83-1.83Z" transform="translate(-2 -2)"/><path class="h" d="M0,0H24V24H0Z"/></g></g></g></svg>