<svg xmlns="http://www.w3.org/2000/svg" xmlns:xlink="http://www.w3.org/1999/xlink" viewBox="5833 -1245 1380 770"><defs><style>.a,.ac,.ae,.i,.r,.x{fill:none;}.b{clip-path:url(#g);}.c{fill:#333746;}.aa,.d{fill:#fff;}.e,.p{fill:#15788c;}.f,.g{fill:#6f768d;}.f{font-size:19px;}.f,.u,.w,.y,.z{font-family:Roboto-Regular, Roboto;}.h,.m,.n,.o{fill:#1d788b;}.i{stroke:#e5e5e5;}.j{fill:#9bbcab;}.k{fill:#ebd1a0;}.l{fill:#e64b60;}.m{opacity:0.7;}.n{opacity:0.4;}.o{opacity:0.2;}.p,.y{font-size:15px;}.p,.v{font-family:Roboto-Bold, Roboto;font-weight:700;}.q,.u,.v{fill:#333747;}.q,.z{font-size:14px;}.q{font-family:Roboto-Medium, Roboto;font-weight:500;}.r{stroke:#e64b60;stroke-width:2px;}.s{clip-path:url(#a);}.t{fill:#afafaf;}.u,.v,.w{font-size:11px;}.w,.y,.z{fill:#95989a;}.x{stroke:#e2e2e2;stroke-width:0.5px;}.aa,.ac{stroke:#e6e6e6;}.ab{clip-path:url(#d);}.ad{clip-path:url(#e);}.ae{stroke:#e8e8e8;}.af{fill:#9fd3e9;opacity:0.496;}.ag{stroke:none;}.ah{filter:url(#b);}</style><clipPath id="a"><rect class="a" width="570" height="24"/></clipPath><filter id="b" x="6833" y="-1156.923" width="35" height="35" filterUnits="userSpaceOnUse"><feOffset dy="3" input="SourceAlpha"/><feGaussianBlur stdDeviation="3" result="c"/><feFlood flood-opacity="0.161"/><feComposite operator="in" in2="c"/><feComposite in="SourceGraphic"/></filter><clipPath id="d"><rect class="a" width="1023" height="528"/></clipPath><clipPath id="e"><rect class="a" width="1014" height="533"/></clipPath><clipPath id="g"><rect x="5833" y="-1245" width="1380" height="770"/></clipPath></defs><g id="f" class="b"><rect class="d" x="5833" y="-1245" width="1380" height="770"/><g transform="translate(5833 -1245)"><rect class="c" width="278.186" height="770.81" transform="translate(-0.502 -0.32)"/></g><g transform="translate(5833 -1442)"><rect class="d" width="279" height="61" transform="translate(0 290)"/><rect class="e" width="4" height="61" transform="translate(0 290)"/></g><g transform="translate(5833 -1345)"><g transform="translate(84.52 142.839)"><text class="f" transform="translate(0.001 87.117)"><tspan x="0" y="0">Campaigns</tspan></text><text class="f" transform="translate(0.001 156.234)"><tspan x="0" y="0">Screens</tspan></text><text class="f" transform="translate(0.001 225.351)"><tspan x="0" y="0">Ads</tspan></text><text class="f" transform="translate(0.001 294.468)"><tspan x="0" y="0">App Store</tspan></text><text class="f" transform="translate(0 363.585)"><tspan x="0" y="0">Content Library</tspan></text><text class="f" transform="translate(0 432.702)"><tspan x="0" y="0">Monitoring</tspan></text><text class="f" transform="translate(0 501.819)"><tspan x="0" y="0">Help</tspan></text></g><g transform="translate(35.02 145.9)"><path class="g" d="M42.918,330H22.511a2.251,2.251,0,0,0-2.211,2.211v13.6a2.251,2.251,0,0,0,2.211,2.211h5.612v2.211h9.013v-2.211h5.612a2.251,2.251,0,0,0,2.211-2.211v-13.6A2.008,2.008,0,0,0,42.918,330Zm0,15.815H22.511v-13.6H42.918Zm-2.381-10.2H28.123v2.211H40.537Zm0,4.592H28.123v2.211H40.537Zm-13.6-4.592H24.722v2.211h2.211Zm0,4.592H24.722v2.211h2.211Z" transform="translate(-20.3 85.285)"/><path class="g" d="M20.6,225.046h7.483v-8.673H20.6Zm8.673,0H44.238v-8.673H29.273ZM20.6,207.7v7.483H44.238V207.7Z" transform="translate(-20.09 -0.397)"/><path class="g" d="M42.918,289.3H22.511a2.376,2.376,0,0,0-2.211,2.211v15.815a2.251,2.251,0,0,0,2.211,2.211H42.918a2.376,2.376,0,0,0,2.211-2.211V291.511A2.376,2.376,0,0,0,42.918,289.3Zm-18.2,15.816,3.911-5.1,2.891,3.4,3.911-5.1,5.1,6.8Z" transform="translate(-20.3 56.771)"/><path class="g" d="M40.277,168.5H23.271a1.887,1.887,0,0,0-1.871,1.871v2.891h1.871v-2.891H40.277v13.265H33.644v1.871h6.632a1.887,1.887,0,0,0,1.871-1.871V170.371A1.784,1.784,0,0,0,40.277,168.5ZM21.57,182.615v2.891h2.891A2.976,2.976,0,0,0,21.57,182.615Zm0-3.911v1.871a4.753,4.753,0,0,1,4.762,4.762H28.2A6.872,6.872,0,0,0,21.57,178.7Zm0-3.741v1.871a8.42,8.42,0,0,1,8.5,8.5h1.871A10.528,10.528,0,0,0,21.57,174.962Z" transform="translate(-19.529 -27.861)"/><path class="g" d="M27.752,263.975a1.871,1.871,0,1,0,1.871,1.871A1.887,1.887,0,0,0,27.752,263.975ZM21.8,248.5v1.871h2.041l3.4,7.483-1.36,2.381a1.533,1.533,0,0,0-.17.85,1.887,1.887,0,0,0,1.871,1.871H39.316v-1.871H28.092a.167.167,0,0,1-.17-.17v-.17l.85-1.531h7.313a1.87,1.87,0,0,0,1.7-1.02l3.4-6.292c0-.17.17-.34.17-.51a1.1,1.1,0,0,0-1.02-1.02H26.051L25.2,248.5Zm15.645,15.475a1.871,1.871,0,1,0,1.871,1.871A1.887,1.887,0,0,0,37.445,263.975Z" transform="translate(-19.249 28.187)"/><path class="g" d="M30.983,385.7h2.041v-2.041H30.983ZM32,369.2a10.2,10.2,0,1,0,10.2,10.2A10.234,10.234,0,0,0,32,369.2Zm0,18.366a8.163,8.163,0,1,1,8.163-8.163A8.165,8.165,0,0,1,32,387.566Zm0-14.285a4.138,4.138,0,0,0-4.081,4.081h2.041a2.041,2.041,0,1,1,4.081,0c0,2.041-3.061,1.871-3.061,5.1h2.041c0-2.211,3.061-2.551,3.061-5.1A4.138,4.138,0,0,0,32,373.281Z" transform="translate(-19.249 112.749)"/><path class="g" d="M25.941,148.088h8.333v-2.041H25.941ZM34.274,125.3H25.941a1.965,1.965,0,0,0-2.041,2.041v14.625a1.965,1.965,0,0,0,2.041,2.041h8.333a1.965,1.965,0,0,0,2.041-2.041V127.341A1.965,1.965,0,0,0,34.274,125.3Zm0,14.455H25.941V129.381h8.333Z" transform="translate(-17.778 -58.127)"/></g></g><path class="a" d="M197.4,8.6h40.814V49.414H197.4Z" transform="translate(5971.795 -1238.986)"/><path class="h" d="M201.4,22.923h13.235V21.414H201.4Zm0-3.715h13.235V17.7H201.4Zm0-5.108v1.509h13.235V14.1Z" transform="translate(5921.105 -1239.1)"/><path class="h" d="M773,15.2V26.765a1.7,1.7,0,0,0,1.7,1.7h11.564a1.7,1.7,0,0,0,1.7-1.7V15.2a1.7,1.7,0,0,0-1.7-1.7H774.7A1.607,1.607,0,0,0,773,15.2Zm9.863,3.231a2.551,2.551,0,1,1-2.551-2.551A2.615,2.615,0,0,1,782.863,18.432Zm-7.312,6.632c0-1.7,3.4-2.551,4.932-2.551s4.932.85,4.932,2.551v.85h-9.863v-.85Z" transform="translate(6411.594 -1241.5)"/><path class="a" d="M771.5,15.8h19.9V35.7H771.5Z" transform="translate(6374.007 -1233.942)"/><line class="i" x2="1101.816" transform="translate(6111.684 -1198.5)"/><g transform="translate(5813 -1246)"><g transform="translate(99.353 27)"><path class="d" d="M-261.559,305.675h-3.285a.138.138,0,0,1-.156-.156V273.3a.138.138,0,0,1,.156-.156h3.285a.138.138,0,0,1,.156.156v1.929a9.332,9.332,0,0,1,6-2.086h9.542q3.911,0,5.162,4.223a11.859,11.859,0,0,1,.052,1.251v14.912a5.113,5.113,0,0,1-3.7,5.214,4.63,4.63,0,0,1-1.668.209h-9.229a9.554,9.554,0,0,1-6.153-2.086v8.655A.138.138,0,0,1-261.559,305.675Zm17.311-12.1V278.561a1.6,1.6,0,0,0-1.408-1.773h-9.8c-2.607,0-4.484,1.356-5.579,4.067a6.726,6.726,0,0,0-.313,2.086v6.048a5.81,5.81,0,0,0,4.171,6.048,4.957,4.957,0,0,0,1.825.313h9.594c.886,0,1.408-.574,1.512-1.773Zm7.56-26.018h3.285a.138.138,0,0,1,.156.156v3.859a.138.138,0,0,1-.156.156h-3.285a.138.138,0,0,1-.156-.156v-3.859Q-236.766,267.56-236.688,267.56Zm0,6.2h3.285a.138.138,0,0,1,.156.156v25.027a.138.138,0,0,1-.156.156h-3.285a.138.138,0,0,1-.156-.156V273.921Q-236.766,273.765-236.688,273.765Zm6.465-1.043h4.015l6.935,8.655c4.223-5.37,6.518-8.29,6.935-8.655h4.067v.156c-5.527,7.143-8.5,10.95-8.812,11.419,6.257,9.072,9.542,13.922,9.959,14.651H-211.3c-.626-.73-2.92-4.171-6.987-10.272a6.189,6.189,0,0,0-1.095-1.46c0,.1-2.607,4.067-7.769,11.732h-4.171V298.9l9.8-14.6-8.916-11.523Zm30.711.365h15.225q4.223,0,5.318,4.38a10.475,10.475,0,0,1,.052,1.3v6.987a.138.138,0,0,1-.156.156h-22.055v7.925c.156.991.626,1.46,1.46,1.46h18.353a.138.138,0,0,1,.156.156v3.285a.138.138,0,0,1-.156.156h-18.249c-2.4,0-4.067-1.3-5.005-3.858a3.969,3.969,0,0,1-.156-1.095V277.988c0-2.19,1.3-3.754,3.858-4.745a6.366,6.366,0,0,1,1.356-.156Zm-1.616,9.125h18.562v-3.754c-.1-1.2-.626-1.773-1.512-1.773h-15.381c-1.147.1-1.668.573-1.668,1.408Zm26.175-15.225h3.285a.138.138,0,0,1,.156.156V298.9a.138.138,0,0,1-.156.156h-3.285a.138.138,0,0,1-.156-.156V267.143A.138.138,0,0,1-174.953,266.986Zm25.027,6.048c3.806,1.981,5.683,4.9,5.683,8.76v12.827a4.685,4.685,0,0,0-.156.626Q-145.963,299-149.248,299H-159a9.374,9.374,0,0,1-7.821-4.067c-1.2-1.408-1.773-3.754-1.773-7.039v-4.849a.138.138,0,0,1,.156-.156h20.6V281.9a4.632,4.632,0,0,0-.209-1.668c-1.043-2.868-2.92-4.276-5.631-4.276h-9.8q-1.408.235-1.408,1.408v.521a.138.138,0,0,1-.156.156h-3.389l-.156-.052a6.061,6.061,0,0,1,.313-2.086c.938-2.346,2.555-3.545,4.849-3.545h9.75a8.7,8.7,0,0,1,3.754.678Zm-14.964,13.452v3.389a6.776,6.776,0,0,0,.209,1.46c1.147,2.711,3.076,4.067,5.735,4.067h9.594c.782,0,1.3-.469,1.46-1.46v-7.456Zm23.1-14.287h3.285a.138.138,0,0,1,.156.156v1.825a9.357,9.357,0,0,1,5.579-1.981h5.058c2.086,0,3.6,1.251,4.693,3.7l.156.991-.156.052h-3.337c-.469-.782-.939-1.147-1.408-1.147h-4.8c-2.659,0-4.536,1.46-5.631,4.432a9.3,9.3,0,0,0-.156,1.46v17.05a.138.138,0,0,1-.156.156h-3.285a.138.138,0,0,1-.156-.156V272.3C-141.948,272.253-141.9,272.2-141.792,272.2Zm22.055-6.1h3.285a.138.138,0,0,1,.156.156v3.7h3.6a.138.138,0,0,1,.156.156v2.711a.138.138,0,0,1-.156.156h-3.6V294.2c0,.73.574,1.2,1.668,1.3H-114a.138.138,0,0,1,.156.156v3.285a.138.138,0,0,1-.156.156h-.678c-2.5,0-4.223-1.356-5.162-4.015a5.4,5.4,0,0,1-.052-.834V273.087a.138.138,0,0,0-.156-.156h-2.034a.138.138,0,0,1-.156-.156v-2.711a.138.138,0,0,1,.156-.156h2.19v-3.7C-119.893,266.152-119.841,266.1-119.737,266.1Z" transform="translate(265 -266.1)"/></g><g transform="translate(61.812 31.536)"><path class="j" d="M-304.2,279.6h13.609v13.609H-304.2Z" transform="translate(321.302 -277.097)"/><path class="k" d="M-304.2,307.6h13.609v13.609H-304.2Z" transform="translate(321.302 -290.498)"/><path class="l" d="M-332.1,307.6h13.609v13.609H-332.1Z" transform="translate(334.655 -290.498)"/><path class="m" d="M-319.8,277h3.285v3.285H-319.8Z" transform="translate(328.768 -275.853)"/><path class="n" d="M-328,275.8h3.285v3.285H-328Zm0,4.223h3.285v3.285H-328Z" transform="translate(332.693 -275.279)"/><path class="o" d="M-337,274.8h3.285v3.285H-337Z" transform="translate(337 -274.8)"/><path class="m" d="M-327.075,291.9h3.285v3.285h-3.285Zm-3.963,0h3.285v3.285h-3.285Zm-3.963,0h3.285v3.285H-335Z" transform="translate(336.043 -282.984)"/><path class="h" d="M-312.3,285.7h3.285v3.285H-312.3Z" transform="translate(325.179 -280.017)"/><path class="n" d="M-336.1,283.9h3.285v3.285H-336.1Z" transform="translate(336.569 -279.155)"/><path class="m" d="M-319.8,284.5h3.285v3.285H-319.8Z" transform="translate(328.768 -279.442)"/><path class="h" d="M-322.255,278.7h3.285v3.285h-3.285Zm0,7.143h3.285v3.285h-3.285Zm-7.2,3.65h3.285v3.285h-3.285Zm3.6,0h3.285v3.285h-3.285Zm-7.248,0h3.285v3.285H-333.1Zm10.845,0h3.285v3.285h-3.285Z" transform="translate(335.133 -276.667)"/></g></g><text class="p" transform="translate(7168 -1215)"><tspan x="-55.62" y="0">Jonh Do</tspan></text><text class="q" transform="translate(6123 -1174)"><tspan x="0" y="0">CREATE SCHEDULE</tspan></text><line class="r" x2="125" transform="translate(6122.5 -1169.5)"/><g class="s" transform="translate(6118 -1155)"><g transform="translate(-291 -93)"><path class="a" d="M0,0H24V24H0Z" transform="translate(291 93)"/><path class="e" d="M10.435,2a8.435,8.435,0,1,0,8.435,8.435A8.438,8.438,0,0,0,10.435,2ZM8.748,14.652,4.53,10.435,5.72,9.245l3.028,3.02,6.4-6.4,1.189,1.2Z" transform="translate(293 94.131)"/></g><g transform="translate(-111 -93)"><path class="a" d="M0,0H24V24H0Z" transform="translate(291 93)"/><path class="e" d="M10.435,2a8.435,8.435,0,1,0,8.435,8.435A8.438,8.438,0,0,0,10.435,2ZM8.748,14.652,4.53,10.435,5.72,9.245l3.028,3.02,6.4-6.4,1.189,1.2Z" transform="translate(293 94.131)"/></g><g transform="translate(69 -93)"><path class="a" d="M0,0H24V24H0Z" transform="translate(291 93)"/><path class="e" d="M10.435,2a8.435,8.435,0,1,0,8.435,8.435A8.438,8.438,0,0,0,10.435,2ZM8.748,14.652,4.53,10.435,5.72,9.245l3.028,3.02,6.4-6.4,1.189,1.2Z" transform="translate(293 94.131)"/></g><g transform="translate(249 -93)"><path class="a" d="M0,0H24V24H0Z" transform="translate(291 93)"/><path class="e" d="M10.435,2a8.435,8.435,0,1,0,8.435,8.435A8.438,8.438,0,0,0,10.435,2ZM8.748,14.652,4.53,10.435,5.72,9.245l3.028,3.02,6.4-6.4,1.189,1.2Z" transform="translate(293 94.131)"/></g></g><path class="t" d="M10.263,2a8.263,8.263,0,1,0,8.263,8.263A8.266,8.266,0,0,0,10.263,2ZM8.61,14.394,4.479,10.263,5.644,9.1,8.61,12.056l6.271-6.271,1.165,1.173Z" transform="translate(7017 -1152.525)"/><text class="u" transform="translate(6141 -1139)"><tspan x="0" y="0">Campaign Name</tspan></text><text class="u" transform="translate(6321 -1139)"><tspan x="0" y="0">Select Ad</tspan></text><text class="u" transform="translate(6502 -1139)"><tspan x="0" y="0">Select Screen Group</tspan></text><text class="u" transform="translate(6681 -1139)"><tspan x="0" y="0">Select Date Range</tspan></text><text class="v" transform="translate(6861 -1139)"><tspan x="0" y="0">Select Schedule</tspan></text><text class="w" transform="translate(7039 -1139)"><tspan x="0" y="0">Review Campaign</tspan></text><line class="x" x2="69" transform="translate(6226.5 -1139.5)"/><line class="x" x2="69" transform="translate(6405.5 -1139.5)"/><line class="x" x2="57" transform="translate(6602.5 -1139.5)"/><line class="x" x2="68" transform="translate(6771.5 -1139.5)"/><line class="x" x2="74" transform="translate(6941.5 -1139.5)"/><g transform="translate(5833 -1245)"><g transform="translate(1009 94.077)"><g class="ah" transform="matrix(1, 0, 0, 1, -6842, 1150.92)"><ellipse class="l" cx="8.5" cy="8.5" rx="8.5" ry="8.5" transform="translate(6842 -1150.92)"/></g></g><g transform="translate(1013.014 99.32)"><path class="d" d="M3,8.495V9.941H4.446L8.712,5.675,7.266,4.229ZM9.831,4.557a.384.384,0,0,0,0-.544l-.9-.9a.384.384,0,0,0-.544,0l-.706.706L9.125,5.262Z" transform="translate(-2.614 -2.613)"/><path class="a" d="M0,0H9.257V9.257H0Z"/></g></g><text class="y" transform="translate(6228 -1068)"><tspan x="0" y="0">MONDAY</tspan></text><text class="y" transform="translate(6348 -1068)"><tspan x="0" y="0">TUESDAY</tspan></text><text class="y" transform="translate(6502 -1068)"><tspan x="0" y="0">WEDNESDAY</tspan></text><text class="y" transform="translate(6648 -1068)"><tspan x="0" y="0">THURSDAY</tspan></text><text class="y" transform="translate(6941 -1068)"><tspan x="0" y="0">SATURDAY</tspan></text><text class="y" transform="translate(7088 -1068)"><tspan x="0" y="0">SUNDAY</tspan></text><text class="y" transform="translate(6801 -1068)"><tspan x="0" y="0">FRIDAY</tspan></text><text class="z" transform="translate(6123 -1035)"><tspan x="0" y="0">00:00</tspan></text><text class="z" transform="translate(6123 -992)"><tspan x="0" y="0">02:00</tspan></text><text class="z" transform="translate(6123 -947)"><tspan x="0" y="0">04:00</tspan></text><text class="z" transform="translate(6123 -902)"><tspan x="0" y="0">06:00</tspan></text><text class="z" transform="translate(6123 -859)"><tspan x="0" y="0">08:00</tspan></text><text class="z" transform="translate(6123 -814)"><tspan x="0" y="0">10:00</tspan></text><text class="z" transform="translate(6123 -771)"><tspan x="0" y="0">12:00</tspan></text><text class="z" transform="translate(6123 -683)"><tspan x="0" y="0">16:00</tspan></text><text class="z" transform="translate(6123 -639)"><tspan x="0" y="0">18:00</tspan></text><text class="z" transform="translate(6123 -596)"><tspan x="0" y="0">20:00</tspan></text><text class="z" transform="translate(6123 -551)"><tspan x="0" y="0">22:00</tspan></text><text class="z" transform="translate(6123 -727)"><tspan x="0" y="0">14:00</tspan></text><g class="aa" transform="translate(6175 -1045)"><rect class="ag" width="1014" height="528"/><rect class="a" x="0.5" y="0.5" width="1013" height="527"/></g><g class="ab" transform="translate(6174.5 -1045.5)"><g transform="translate(-498.5 -200.5)"><line class="ac" y2="532" transform="translate(498.5 200.5)"/></g><g transform="translate(-353.5 -200.5)"><line class="ac" y2="532" transform="translate(498.5 200.5)"/></g><g transform="translate(-208.5 -200.5)"><line class="ac" y2="532" transform="translate(498.5 200.5)"/></g><g transform="translate(-63.5 -200.5)"><line class="ac" y2="532" transform="translate(498.5 200.5)"/></g><g transform="translate(81.5 -200.5)"><line class="ac" y2="532" transform="translate(498.5 200.5)"/></g><g transform="translate(226.5 -200.5)"><line class="ac" y2="532" transform="translate(498.5 200.5)"/></g><g transform="translate(371.5 -200.5)"><line class="ac" y2="532" transform="translate(498.5 200.5)"/></g><g transform="translate(516.5 -200.5)"><line class="ac" y2="532" transform="translate(498.5 200.5)"/></g></g><g class="ad" transform="translate(6175.5 -1045.5)"><g transform="translate(-342.5 -235.5)"><line class="ae" x2="1016" transform="translate(342.5 235.5)"/></g><g transform="translate(-342.5 -191.5)"><line class="ae" x2="1016" transform="translate(342.5 235.5)"/></g><g transform="translate(-342.5 -147.5)"><line class="ae" x2="1016" transform="translate(342.5 235.5)"/></g><g transform="translate(-342.5 -103.5)"><line class="ae" x2="1016" transform="translate(342.5 235.5)"/></g><g transform="translate(-342.5 -59.5)"><line class="ae" x2="1016" transform="translate(342.5 235.5)"/></g><g transform="translate(-342.5 -15.5)"><line class="ae" x2="1016" transform="translate(342.5 235.5)"/></g><g transform="translate(-342.5 28.5)"><line class="ae" x2="1016" transform="translate(342.5 235.5)"/></g><g transform="translate(-342.5 72.5)"><line class="ae" x2="1016" transform="translate(342.5 235.5)"/></g><g transform="translate(-342.5 116.5)"><line class="ae" x2="1016" transform="translate(342.5 235.5)"/></g><g transform="translate(-342.5 160.5)"><line class="ae" x2="1016" transform="translate(342.5 235.5)"/></g><g transform="translate(-342.5 204.5)"><line class="ae" x2="1016" transform="translate(342.5 235.5)"/></g><g transform="translate(-342.5 248.5)"><line class="ae" x2="1016" transform="translate(342.5 235.5)"/></g><g transform="translate(-342.5 292.5)"><line class="ae" x2="1016" transform="translate(342.5 235.5)"/></g></g><rect class="af" width="726" height="308" transform="translate(6175 -1045)"/><rect class="af" width="579" height="176" transform="translate(6176 -737)"/></g></svg>