<svg xmlns="http://www.w3.org/2000/svg" viewBox="394.858 104.187 330.855 330.857">
  <defs>
    <style>
      .cls-1 {
        fill: #60a0ad;
      }

      .cls-2 {
        fill: #1d788b;
      }

      .cls-3 {
        fill: #efca85;
      }
    </style>
  </defs>
  <g id="broken-link" transform="translate(394.858 104.187)">
    <g id="Group_9" data-name="Group 9" transform="translate(0)">
      <path id="Path_26" data-name="Path 26" class="cls-1" d="M163.735,76.165,105.677,18.108a61.921,61.921,0,0,0-87.569,87.57l58.057,58.056a61.921,61.921,0,0,0,87.569-87.569ZM83.906,39.881l58.058,58.056a31.132,31.132,0,1,1-44.027,44.027L68.908,112.936h0L39.88,83.907A31.131,31.131,0,0,1,83.906,39.881Z" transform="translate(-0.002)"/>
      <path id="Path_27" data-name="Path 27" class="cls-1" d="M394.33,306.761,336.273,248.7A61.921,61.921,0,0,0,248.7,336.273L306.76,394.33a61.921,61.921,0,0,0,87.569-87.569Zm-65.8,65.8L299.5,343.531,270.475,314.5A31.131,31.131,0,1,1,314.5,270.475l58.057,58.057a31.131,31.131,0,1,1-44.026,44.027Z" transform="translate(-81.584 -81.583)"/>
    </g>
    <path id="Path_28" data-name="Path 28" class="cls-2" d="M278.991,257.225,155.136,133.369a15.395,15.395,0,1,0-21.771,21.772L257.219,279a15.394,15.394,0,1,0,21.771-21.771Z" transform="translate(-45.589 -45.592)"/>
    <g id="Group_10" data-name="Group 10" transform="translate(193.601 52.65)">
      <path id="Path_29" data-name="Path 29" class="cls-3" d="M338.611,152.93a5.132,5.132,0,0,1-3.629-8.76l28.737-28.737a5.132,5.132,0,0,1,7.258,7.257L342.24,151.427A5.116,5.116,0,0,1,338.611,152.93Z" transform="translate(-311.585 -92.957)"/>
      <path id="Path_30" data-name="Path 30" class="cls-3" d="M304.73,132.378a5.131,5.131,0,0,1-5.132-5.132V86.607a5.132,5.132,0,0,1,10.263,0v40.64A5.131,5.131,0,0,1,304.73,132.378Z" transform="translate(-299.598 -81.475)"/>
      <path id="Path_31" data-name="Path 31" class="cls-3" d="M393.287,202.545H352.648a5.132,5.132,0,1,1,0-10.263h40.639a5.132,5.132,0,1,1,0,10.263Z" transform="translate(-316.551 -120.678)"/>
    </g>
  </g>
</svg>
