<svg xmlns="http://www.w3.org/2000/svg" viewBox="797.538 63.187 325.296 330.858">
  <defs>
    <style>
      .cls-1 {
        fill: #9baaab;
      }

      .cls-2 {
        fill: #687f82;
      }

      .cls-3 {
        fill: #365558;
      }

      .cls-4 {
        fill: #fff;
      }

      .cls-5 {
        fill: #ebd1a0;
      }

      .cls-6 {
        fill: #e64b60;
      }

      .cls-7 {
        fill: #60a0ad;
      }

      .cls-8 {
        fill: #1d788b;
      }

      .cls-9 {
        fill: #ffd1a9;
      }

      .cls-10 {
        fill: #cdd4d5;
      }

      .cls-11 {
        fill: #efca85;
      }
    </style>
  </defs>
  <g id="design-tool" transform="translate(797.538 63.187)">
    <path id="Path_32" data-name="Path 32" class="cls-1" d="M328.069,324.986,13.222,10.139A5.224,5.224,0,0,0,4.3,13.834V328.68A5.224,5.224,0,0,0,9.528,333.9H324.375a5.224,5.224,0,0,0,3.694-8.918ZM56.547,281.662V127.314l154.88,154.348Z" transform="translate(-4.304 -3.046)"/>
    <path id="Path_33" data-name="Path 33" class="cls-2" d="M171.485,254.588,134.692,291.38l77.573,77.307H57.385L6.673,419.4a5.208,5.208,0,0,0,3.694,1.53H325.213a5.224,5.224,0,0,0,3.694-8.919Z" transform="translate(-5.142 -90.072)"/>
    <g id="Group_11" data-name="Group 11" transform="translate(41.795 298.119)">
      <path id="Path_34" data-name="Path 34" class="cls-3" d="M74.206,461.338a5.224,5.224,0,0,0-5.224,5.224v27.514H79.43V466.562A5.224,5.224,0,0,0,74.206,461.338Z" transform="translate(-68.982 -461.338)"/>
      <path id="Path_35" data-name="Path 35" class="cls-3" d="M138.881,461.338a5.224,5.224,0,0,0-5.224,5.224v27.514h10.449V466.562A5.225,5.225,0,0,0,138.881,461.338Z" transform="translate(-91.864 -461.338)"/>
      <path id="Path_36" data-name="Path 36" class="cls-3" d="M203.557,461.338a5.224,5.224,0,0,0-5.224,5.224v27.514h10.449V466.562A5.225,5.225,0,0,0,203.557,461.338Z" transform="translate(-114.746 -461.338)"/>
      <path id="Path_37" data-name="Path 37" class="cls-3" d="M268.233,461.338a5.224,5.224,0,0,0-5.224,5.224v27.514h10.449V466.562A5.225,5.225,0,0,0,268.233,461.338Z" transform="translate(-137.627 -461.338)"/>
      <path id="Path_38" data-name="Path 38" class="cls-3" d="M332.908,461.338a5.224,5.224,0,0,0-5.224,5.224v27.514h10.449V466.562A5.225,5.225,0,0,0,332.908,461.338Z" transform="translate(-160.509 -461.338)"/>
      <path id="Path_39" data-name="Path 39" class="cls-3" d="M397.584,461.338a5.224,5.224,0,0,0-5.224,5.224v27.514h10.449V466.562A5.225,5.225,0,0,0,397.584,461.338Z" transform="translate(-183.391 -461.338)"/>
    </g>
    <g id="Group_12" data-name="Group 12" transform="translate(27.863 61.289)">
      <path id="Path_40" data-name="Path 40" class="cls-4" d="M130.661,183.307a5.207,5.207,0,0,1-3.694-1.53L48.952,103.762a5.224,5.224,0,0,1,7.387-7.389l78.015,78.015a5.224,5.224,0,0,1-3.694,8.918Z" transform="translate(-47.422 -94.844)"/>
      <path id="Path_41" data-name="Path 41" class="cls-4" d="M208.864,265.82a5.207,5.207,0,0,1-3.694-1.53l-13.932-13.932a5.224,5.224,0,1,1,7.387-7.389L212.557,256.9a5.224,5.224,0,0,1-3.694,8.918Z" transform="translate(-97.762 -146.709)"/>
    </g>
    <path id="Path_42" data-name="Path 42" class="cls-5" d="M343.248,147.754,222.664,27.17a5.225,5.225,0,0,0-7.387,0L160.112,82.334a5.225,5.225,0,0,0,0,7.389L280.7,210.306a5.225,5.225,0,0,0,7.387,0l55.165-55.164a5.225,5.225,0,0,0,0-7.389Z" transform="translate(-58.887 -9.072)"/>
    <path id="Path_43" data-name="Path 43" class="cls-6" d="M187.929,70.326,160.111,98.144a5.225,5.225,0,0,0,0,7.389L280.7,226.116a5.225,5.225,0,0,0,7.387,0L315.9,198.3Z" transform="translate(-58.886 -24.881)"/>
    <path id="Path_44" data-name="Path 44" class="cls-7" d="M335.224,175.193,214.64,54.61a5.225,5.225,0,0,0-7.387,0l-19.7,19.7a5.225,5.225,0,0,0,0,7.389L308.135,202.283a5.225,5.225,0,0,0,7.387,0l19.7-19.7a5.225,5.225,0,0,0,0-7.389Z" transform="translate(-68.594 -18.78)"/>
    <path id="Path_45" data-name="Path 45" class="cls-8" d="M197.637,70.326,187.551,80.412a5.225,5.225,0,0,0,0,7.389L308.135,208.384a5.225,5.225,0,0,0,7.387,0L325.609,198.3Z" transform="translate(-68.594 -24.881)"/>
    <g id="Group_13" data-name="Group 13" transform="translate(85.903 2.776)">
      <path id="Path_46" data-name="Path 46" class="cls-9" d="M138.769,5.827a5.225,5.225,0,0,0-1.429,4.719L151.132,79.5,212.444,18.19,143.488,4.4A5.221,5.221,0,0,0,138.769,5.827Z" transform="translate(-137.239 -4.296)"/>
      <path id="Path_47" data-name="Path 47" class="cls-9" d="M139.019,6.324c-.083.073-.171.142-.25.221a5.225,5.225,0,0,0-1.429,4.719L151.132,80.22l30.892-30.892Z" transform="translate(-137.239 -5.014)"/>
    </g>
    <path id="Path_48" data-name="Path 48" class="cls-2" d="M138.769,5.827a5.225,5.225,0,0,0-1.429,4.719l5.91,29.553,29.789-29.79L143.488,4.4A5.221,5.221,0,0,0,138.769,5.827Z" transform="translate(-51.336 -1.52)"/>
    <path id="Path_49" data-name="Path 49" class="cls-3" d="M139.019,6.324c-.083.073-.171.142-.25.221a5.225,5.225,0,0,0-1.429,4.719l5.91,29.553,15.13-15.131Z" transform="translate(-51.336 -2.238)"/>
    <path id="Path_50" data-name="Path 50" class="cls-10" d="M410.1,214.61l-62.553,62.553,39.4,39.4a5.225,5.225,0,0,0,7.387,0L449.507,261.4a5.225,5.225,0,0,0,0-7.389Z" transform="translate(-125.743 -75.928)"/>
    <path id="Path_51" data-name="Path 51" class="cls-1" d="M379.063,262.646l-31.512,31.512,39.4,39.4a5.225,5.225,0,0,0,7.387,0l27.818-27.818Z" transform="translate(-125.743 -92.923)"/>
    <path id="Path_52" data-name="Path 52" class="cls-4" d="M446.008,278.755a5.207,5.207,0,0,1-3.694-1.53l-13.932-13.932a5.224,5.224,0,0,1,7.387-7.389L449.7,269.837a5.224,5.224,0,0,1-3.694,8.918Z" transform="translate(-153.799 -89.997)"/>
    <path id="Path_53" data-name="Path 53" class="cls-7" d="M445.362,64.707,386.256,5.6a19.18,19.18,0,0,0-27.09,0L341.434,23.333a19.178,19.178,0,0,0,0,27.091l59.1,59.106a5.225,5.225,0,0,0,7.387,0L445.36,72.1A5.222,5.222,0,0,0,445.362,64.707Z" transform="translate(-121.597 0)"/>
    <path id="Path_54" data-name="Path 54" class="cls-5" d="M418.088,124.913a5.225,5.225,0,0,0,3.694-1.53L459.216,85.95a5.225,5.225,0,0,0,0-7.389l-39.4-39.4L374.991,83.98l39.4,39.4A5.228,5.228,0,0,0,418.088,124.913Z" transform="translate(-135.451 -13.854)"/>
    <path id="Path_55" data-name="Path 55" class="cls-8" d="M350.458,22.144l-9.022,9.022a19.178,19.178,0,0,0,0,27.091l59.1,59.106a5.225,5.225,0,0,0,7.387,0L426.8,98.489Z" transform="translate(-121.597 -7.835)"/>
    <path id="Path_56" data-name="Path 56" class="cls-11" d="M397.558,73.594,374.99,96.162l39.4,39.4a5.225,5.225,0,0,0,7.387,0l18.874-18.874Z" transform="translate(-135.45 -26.037)"/>
    <path id="Path_57" data-name="Path 57" class="cls-4" d="M451.537,99.584a5.207,5.207,0,0,1-3.694-1.53L432.082,82.293A5.224,5.224,0,0,1,439.47,74.9l15.761,15.762a5.224,5.224,0,0,1-3.694,8.918Z" transform="translate(-155.108 -25.96)"/>
  </g>
</svg>
