<?xml version="1.0" encoding="utf-8"?>
<!-- Generator: Adobe Illustrator 19.0.0, SVG Export Plug-In . SVG Version: 6.00 Build 0)  -->
<svg version="1.1" id="Layer_1" xmlns="http://www.w3.org/2000/svg" xmlns:xlink="http://www.w3.org/1999/xlink" x="0px" y="0px"
	 viewBox="97 249 180 289" style="enable-background:new 97 249 180 289;" xml:space="preserve">
<style type="text/css">
	.st0{fill:#FFFFFF;}
	.st1{fill:#66C6FE;}
	.st2{fill:#99D9FF;}
	.st3{fill:#5389A9;}
</style>
<polygon class="st0" points="26.8,158.8 26.8,603.2 251.9,603.2 319.4,603.2 319.4,158.8 "/>
<g>
	<path class="st1" d="M250.5,443.5v83.3c0,4.7,3.8,8.4,8.4,8.4s8.4-3.8,8.4-8.4v-64.1L250.5,443.5z"/>
</g>
<path class="st2" d="M267.4,353.4v109.2h-22.5c-12.4,0-22.5-10.1-22.5-22.5v-86.6c0-12.4,10.1-22.5,22.5-22.5
	C257.3,330.9,267.4,341,267.4,353.4z"/>
<path class="st1" d="M146.4,421v105.8c0,4.7,3.8,8.4,8.4,8.4s8.4-3.8,8.4-8.4V421H146.4z"/>
<g>
	<path class="st2" d="M154.8,330.9c-4.7,0-8.4,3.8-8.4,8.4v67.5h16.9v-67.5C163.3,334.7,159.5,330.9,154.8,330.9z"/>
	<path class="st2" d="M188.6,330.9c-4.7,0-8.4,3.8-8.4,8.4v67.5l16.9-16.3v-51.2C197,334.7,193.3,330.9,188.6,330.9z"/>
	<path class="st2" d="M121.1,330.9c-4.7,0-8.4,3.8-8.4,8.4v51.2l16.9,16.3v-67.5C129.5,334.7,125.7,330.9,121.1,330.9z"/>
	<path class="st2" d="M197,390v16.9c0,23.3-18.9,42.2-42.2,42.2s-42.2-18.9-42.2-42.2V390h42.2H197z"/>
</g>
<path class="st3" d="M116.9,302.8c-2.3,0-4.5-0.9-6.2-2.7c-3.2-3.4-2.9-8.8,0.5-11.9l24.4-22.5c3.2-3,8.2-3,11.4,0l18.7,17.2
	l18.7-17.2c3.2-3,8.2-3,11.4,0l18.7,17.2l18.7-17.2c3.2-3,8.2-3,11.5,0l24.4,22.5c3.4,3.2,3.6,8.5,0.5,11.9
	c-3.2,3.4-8.5,3.6-11.9,0.5l-18.7-17.2l-18.7,17.2c-3.2,3-8.2,3-11.5,0L190,283.3l-18.7,17.2c-3.2,3-8.2,3-11.4,0l-18.7-17.2
	l-18.7,17.2C121,302.1,118.9,302.8,116.9,302.8z"/>
<rect x="220" y="225" class="st3" width="0" height="0"/>
</svg>
