<svg xmlns="http://www.w3.org/2000/svg" viewBox="928 859.649 217.053 133.676">
  <defs>
    <style>
      .cls-1 {
        fill: #efca85;
      }

      .cls-2 {
        fill: #60a0ad;
      }

      .cls-3 {
        fill: #ebd1a0;
      }

      .cls-4 {
        fill: #1d788b;
      }
    </style>
  </defs>
  <g id="paper-plane" transform="translate(928.001 761.311)">
    <path id="Path_140" data-name="Path 140" class="cls-1" d="M177.4,226.606H3.4a3.4,3.4,0,0,0-1.307,6.535l174,72.5a3.4,3.4,0,0,0,4.706-3.137V230A3.4,3.4,0,0,0,177.4,226.606Z" transform="translate(0 -73.892)"/>
    <path id="Path_141" data-name="Path 141" class="cls-2" d="M167.266,112.92l-65.251-14.5a3.387,3.387,0,0,0-2.388.347L1.75,153.142a3.4,3.4,0,0,0,2.458,6.272l163.129-39.876a3.4,3.4,0,0,0-.07-6.619Z" transform="translate(-0.001)"/>
    <path id="Path_142" data-name="Path 142" class="cls-3" d="M168.627,133.269a3.393,3.393,0,0,0-2.906-.628L2.593,172.517a3.4,3.4,0,0,0,.284,6.66l163.129,25.376a3.4,3.4,0,0,0,3.921-3.358V135.942A3.4,3.4,0,0,0,168.627,133.269Z" transform="translate(-0.001 -19.705)"/>
    <path id="Path_143" data-name="Path 143" class="cls-4" d="M216.653,282.782l-29-54.376a3.4,3.4,0,0,0-3-1.8H3.4a3.4,3.4,0,0,0-.851,6.689L212.8,287.671a3.4,3.4,0,0,0,3.85-4.889Z" transform="translate(-0.001 -73.892)"/>
  </g>
</svg>
