<svg xmlns="http://www.w3.org/2000/svg" viewBox="105.357 453.139 330.858 330.859">
  <defs>
    <style>
      .cls-1 {
        fill: #e6eaea;
      }

      .cls-2 {
        fill: #cdd4d5;
      }

      .cls-3 {
        fill: #60a0ad;
      }

      .cls-4 {
        fill: #1d788b;
      }

      .cls-5 {
        fill: #ebd1a0;
      }

      .cls-6 {
        fill: #e64b60;
      }

      .cls-7 {
        fill: #fff;
      }

      .cls-8 {
        fill: #ffd1a9;
      }

      .cls-9 {
        fill: #efca85;
      }
    </style>
  </defs>
  <g id="piggy-bank" transform="translate(105.357 453.139)">
    <path id="Path_58" data-name="Path 58" class="cls-1" d="M237.513,0A49.387,49.387,0,1,0,286.9,49.387,49.443,49.443,0,0,0,237.513,0Z" transform="translate(-66.558)"/>
    <path id="Path_59" data-name="Path 59" class="cls-2" d="M188.126,49.387a49.443,49.443,0,0,0,49.387,49.387V0A49.443,49.443,0,0,0,188.126,49.387Z" transform="translate(-66.558)"/>
    <path id="Path_60" data-name="Path 60" class="cls-3" d="M269.216,89.57A5.181,5.181,0,0,0,274.4,84.39v-22.1a5.181,5.181,0,0,0-5.181-5.181h-11.4V39.838H269a5.324,5.324,0,0,0,5.4-5.022,5.181,5.181,0,0,0-5.178-5.34h-11.4V26.024a5.181,5.181,0,0,0-5.181-5.181h0a5.181,5.181,0,0,0-5.181,5.181v3.453h-11.4a5.181,5.181,0,0,0-5.181,5.181V62.287a5.181,5.181,0,0,0,5.181,5.181h11.4V79.21h-11.18a5.324,5.324,0,0,0-5.4,5.022,5.181,5.181,0,0,0,5.178,5.34h11.4v3.453a5.181,5.181,0,0,0,5.181,5.181h0a5.181,5.181,0,0,0,5.181-5.181V89.571h11.4Zm-11.4-22.1h6.216V79.21h-6.216ZM247.458,57.106h-6.216V39.838h6.216Z" transform="translate(-81.684 -7.374)"/>
    <path id="Path_61" data-name="Path 61" class="cls-4" d="M247.459,26.024v3.453h-11.4a5.181,5.181,0,0,0-5.181,5.181V62.287a5.181,5.181,0,0,0,5.181,5.181h11.4V79.21h-11.18a5.324,5.324,0,0,0-5.4,5.022,5.181,5.181,0,0,0,5.178,5.34h11.4v3.453a5.181,5.181,0,0,0,5.181,5.181V20.843A5.181,5.181,0,0,0,247.459,26.024Zm0,31.083h-6.216V39.838h6.216Z" transform="translate(-81.684 -7.374)"/>
    <g id="Group_14" data-name="Group 14" transform="translate(0 55.258)">
      <path id="Path_62" data-name="Path 62" class="cls-5" d="M190.12,437.9a5.181,5.181,0,0,0-3.913-1.786H142a5.18,5.18,0,0,0-5.128,5.913L142.4,480.7a5.18,5.18,0,0,0,5.129,4.448h33.155a5.181,5.181,0,0,0,5.129-4.448l5.526-38.681A5.189,5.189,0,0,0,190.12,437.9Z" transform="translate(-48.406 -209.551)"/>
      <path id="Path_63" data-name="Path 63" class="cls-5" d="M344.041,437.9a5.181,5.181,0,0,0-3.913-1.786H295.921a5.18,5.18,0,0,0-5.128,5.913l5.526,38.681a5.18,5.18,0,0,0,5.129,4.448H334.6a5.181,5.181,0,0,0,5.129-4.448l5.526-38.681A5.189,5.189,0,0,0,344.041,437.9Z" transform="translate(-102.862 -209.551)"/>
      <path id="Path_64" data-name="Path 64" class="cls-5" d="M74.839,274.863a5.172,5.172,0,0,0-4.2-1.157L4.329,284.757A5.182,5.182,0,0,0,0,289.868v44.206a5.181,5.181,0,0,0,4.329,5.11l66.31,11.051a5.18,5.18,0,0,0,6.032-5.11v-66.31A5.181,5.181,0,0,0,74.839,274.863Z" transform="translate(0 -152.069)"/>
      <path id="Path_65" data-name="Path 65" class="cls-5" d="M181.526,136.983,137.32,87.251a5.18,5.18,0,0,0-9.052,3.441v49.732a5.18,5.18,0,0,0,5.181,5.181h44.206a5.18,5.18,0,0,0,3.871-8.622Z" transform="translate(-45.38 -85.512)"/>
    </g>
    <path id="Path_66" data-name="Path 66" class="cls-6" d="M449.841,247.693a5.181,5.181,0,1,1,0-10.361,27.974,27.974,0,0,0,0-55.949,5.181,5.181,0,1,1,0-10.361,38.336,38.336,0,0,1,0,76.671Z" transform="translate(-157.318 -60.506)"/>
    <path id="Path_67" data-name="Path 67" class="cls-5" d="M235.552,162.472H108.458A74.337,74.337,0,0,0,34.2,236.725v49.732a74.337,74.337,0,0,0,74.253,74.253H235.551A74.337,74.337,0,0,0,309.8,286.457V236.725A74.336,74.336,0,0,0,235.552,162.472Z" transform="translate(-12.102 -57.482)"/>
    <g id="Group_15" data-name="Group 15" transform="translate(216.888 171.3)">
      <path id="Path_68" data-name="Path 68" class="cls-7" d="M340.814,414.24a5.181,5.181,0,1,1,0-10.361A43.433,43.433,0,0,0,379.819,379.2a5.181,5.181,0,1,1,9.354,4.456A53.845,53.845,0,0,1,340.814,414.24Z" transform="translate(-335.633 -304.414)"/>
      <path id="Path_69" data-name="Path 69" class="cls-7" d="M415.636,308.6a5.18,5.18,0,0,1-5.181-5.181V270.266a5.181,5.181,0,1,1,10.361,0v33.156A5.18,5.18,0,0,1,415.636,308.6Z" transform="translate(-362.104 -265.085)"/>
    </g>
    <circle id="Ellipse_1" data-name="Ellipse 1" class="cls-8" cx="16.577" cy="16.577" r="16.577" transform="translate(54.913 165.429)"/>
    <g id="Group_16" data-name="Group 16" transform="translate(49.733 138.145)">
      <path id="Path_70" data-name="Path 70" class="cls-6" d="M98.719,291.5a21.758,21.758,0,1,1,21.758-21.758A21.783,21.783,0,0,1,98.719,291.5Zm0-33.155a11.4,11.4,0,1,0,11.4,11.4A11.41,11.41,0,0,0,98.719,258.345Z" transform="translate(-76.961 -225.881)"/>
      <path id="Path_71" data-name="Path 71" class="cls-6" d="M278.694,213.779H184.755c-2.861,0-5.181,1.4-5.181,3.124v16.661c0,1.725,2.319,3.124,5.181,3.124h93.939c2.861,0,5.181-1.4,5.181-3.124V216.9C283.874,215.177,281.554,213.779,278.694,213.779Z" transform="translate(-113.265 -213.779)"/>
    </g>
    <path id="Path_72" data-name="Path 72" class="cls-9" d="M179.575,243.173v13.814a5.18,5.18,0,0,0,5.181,5.181h93.938a5.18,5.18,0,0,0,5.181-5.181V243.173Z" transform="translate(-63.532 -86.033)"/>
  </g>
</svg>
