<svg xmlns="http://www.w3.org/2000/svg" viewBox="503.401 492.139 297.705 330.857">
  <defs>
    <style>
      .cls-1 {
        fill: #e6eaea;
      }

      .cls-2 {
        fill: #60a0ad;
      }

      .cls-3 {
        fill: #ebd1a0;
      }

      .cls-4 {
        fill: #fff;
      }

      .cls-5 {
        fill: #9baaab;
      }

      .cls-6 {
        fill: #1d788b;
      }

      .cls-7 {
        fill: #efca85;
      }
    </style>
  </defs>
  <g id="security" transform="translate(503.401 492.139)">
    <path id="Path_88" data-name="Path 88" class="cls-1" d="M319.869,50.018,176.2.286a5.171,5.171,0,0,0-3.389,0L29.138,50.018a5.179,5.179,0,0,0-3.411,5.771l33.155,193.4a5.18,5.18,0,0,0,2.135,3.369l110.516,77.361a5.183,5.183,0,0,0,5.941,0L287.991,252.56a5.18,5.18,0,0,0,2.136-3.369l33.155-193.4A5.18,5.18,0,0,0,319.869,50.018Z" transform="translate(-25.652 0)"/>
    <path id="Path_89" data-name="Path 89" class="cls-2" d="M309.283,75.854,189.007,34.22a5.171,5.171,0,0,0-3.389,0L65.342,75.854a5.179,5.179,0,0,0-3.411,5.771L90.654,249.178a5.18,5.18,0,0,0,2.135,3.369l91.552,64.086a5.183,5.183,0,0,0,5.941,0l91.553-64.086a5.18,5.18,0,0,0,2.136-3.369L312.694,81.625A5.179,5.179,0,0,0,309.283,75.854Z" transform="translate(-38.46 -12.006)"/>
    <path id="Path_90" data-name="Path 90" class="cls-3" d="M235.293,185.327a35.572,35.572,0,1,0-18.715,0,54.99,54.99,0,0,0-45.555,54.1v27.629a5.18,5.18,0,0,0,5.181,5.181h99.464a5.18,5.18,0,0,0,5.181-5.181V239.426A54.992,54.992,0,0,0,235.293,185.327Z" transform="translate(-77.083 -40.842)"/>
    <g id="Group_19" data-name="Group 19" transform="translate(171.295 53.418)">
      <path id="Path_91" data-name="Path 91" class="cls-4" d="M370.85,292.487a5.246,5.246,0,0,1-.881-.074,5.182,5.182,0,0,1-4.231-5.982l8.052-46.97A5.181,5.181,0,1,1,384,241.213l-8.052,46.97A5.183,5.183,0,0,1,370.85,292.487Z" transform="translate(-317.24 -136.614)"/>
      <path id="Path_92" data-name="Path 92" class="cls-4" d="M379.637,154.169a5.246,5.246,0,0,1-.881-.074,5.182,5.182,0,0,1-4.231-5.982l4.462-26.028-29.178-10.1a5.18,5.18,0,0,1,3.389-9.79l33.333,11.539a5.179,5.179,0,0,1,3.411,5.771l-5.2,30.361A5.183,5.183,0,0,1,379.637,154.169Z" transform="translate(-310.398 -89.472)"/>
      <path id="Path_93" data-name="Path 93" class="cls-4" d="M318.017,100.679a5.165,5.165,0,0,1-1.694-.287L294.217,92.74a5.18,5.18,0,0,1,3.389-9.79L319.711,90.6a5.181,5.181,0,0,1-1.694,10.077Z" transform="translate(-290.729 -82.663)"/>
    </g>
    <path id="Path_94" data-name="Path 94" class="cls-5" d="M172.809.286,29.138,50.018a5.179,5.179,0,0,0-3.411,5.771l33.155,193.4a5.18,5.18,0,0,0,2.135,3.369l110.516,77.361a5.179,5.179,0,0,0,2.971.936V0A5.18,5.18,0,0,0,172.809.286Z" transform="translate(-25.652)"/>
    <path id="Path_95" data-name="Path 95" class="cls-6" d="M185.618,34.219,65.342,75.854a5.179,5.179,0,0,0-3.411,5.771L90.654,249.178a5.18,5.18,0,0,0,2.135,3.369l91.552,64.086a5.179,5.179,0,0,0,2.971.936V33.933A5.179,5.179,0,0,0,185.618,34.219Z" transform="translate(-38.46 -12.005)"/>
    <path id="Path_96" data-name="Path 96" class="cls-7" d="M190.362,151.013a35.631,35.631,0,0,0,26.215,34.315,54.99,54.99,0,0,0-45.555,54.1v27.629a5.18,5.18,0,0,0,5.181,5.181h49.732v-156.8A35.612,35.612,0,0,0,190.362,151.013Z" transform="translate(-77.083 -40.842)"/>
  </g>
</svg>
