<svg xmlns="http://www.w3.org/2000/svg" viewBox="855.312 492.497 246.563 330.858">
  <defs>
    <style>
      .cls-1 {
        fill: #e6eaea;
      }

      .cls-2 {
        fill: #cdd4d5;
      }

      .cls-3 {
        fill: #9baaab;
      }

      .cls-4 {
        fill: #687f82;
      }

      .cls-5 {
        fill: #365558;
      }

      .cls-6 {
        fill: #60a0ad;
      }

      .cls-7 {
        fill: #1d788b;
      }

      .cls-8 {
        fill: #ff8c29;
      }

      .cls-9 {
        fill: #ebd1a0;
      }

      .cls-10 {
        fill: #e64b60;
      }
    </style>
  </defs>
  <g id="tap_1_" data-name="tap (1)" transform="translate(855.312 492.497)">
    <path id="Path_97" data-name="Path 97" class="cls-1" d="M284.039,0H70.492a5.268,5.268,0,0,0-5.269,5.269V308.73A5.268,5.268,0,0,0,70.492,314H284.039a5.268,5.268,0,0,0,5.268-5.269V5.269A5.268,5.268,0,0,0,284.039,0Z" transform="translate(-65.223)"/>
    <path id="Path_98" data-name="Path 98" class="cls-2" d="M70.492,0a5.268,5.268,0,0,0-5.269,5.269V308.73A5.268,5.268,0,0,0,70.492,314H177.265V0Z" transform="translate(-65.223)"/>
    <path id="Path_99" data-name="Path 99" class="cls-3" d="M289.307,417.427H65.223v38.986a5.268,5.268,0,0,0,5.269,5.269H284.039a5.268,5.268,0,0,0,5.268-5.269Z" transform="translate(-65.223 -147.683)"/>
    <path id="Path_100" data-name="Path 100" class="cls-4" d="M65.223,417.427v38.986a5.268,5.268,0,0,0,5.269,5.269H177.265V417.427Z" transform="translate(-65.223 -147.683)"/>
    <path id="Path_101" data-name="Path 101" class="cls-5" d="M239.537,454.053H222.678a5.269,5.269,0,1,1,0-10.537h16.859a5.269,5.269,0,1,1,0,10.537Z" transform="translate(-119.066 -156.913)"/>
    <g id="Group_20" data-name="Group 20" transform="translate(22.479 19.669)">
      <path id="Path_102" data-name="Path 102" class="cls-6" d="M275.06,224.006A44.606,44.606,0,1,1,319.667,179.4,44.657,44.657,0,0,1,275.06,224.006Zm0-78.675A34.069,34.069,0,1,0,309.13,179.4,34.108,34.108,0,0,0,275.06,145.331Z" transform="translate(-146.16 -67.358)"/>
      <path id="Path_103" data-name="Path 103" class="cls-6" d="M131.367,147.748a5.268,5.268,0,0,1-5.269-5.269A112.169,112.169,0,0,1,238.14,30.438a5.269,5.269,0,1,1,0,10.537A101.62,101.62,0,0,0,136.634,142.48,5.268,5.268,0,0,1,131.367,147.748Z" transform="translate(-109.239 -30.438)"/>
      <path id="Path_104" data-name="Path 104" class="cls-6" d="M122.136,196.977a5.255,5.255,0,0,1-3.725-1.542l-16.859-16.859a5.268,5.268,0,0,1,7.45-7.451l13.134,13.134,13.134-13.134a5.268,5.268,0,0,1,7.45,7.451l-16.859,16.859A5.255,5.255,0,0,1,122.136,196.977Z" transform="translate(-100.009 -79.666)"/>
    </g>
    <g id="Group_21" data-name="Group 21" transform="translate(73.056 36.529)">
      <path id="Path_105" data-name="Path 105" class="cls-7" d="M183.545,166.209a5.268,5.268,0,0,1-5.269-5.269A78.413,78.413,0,0,1,256.6,82.616a5.269,5.269,0,1,1,0,10.537,67.864,67.864,0,0,0-67.787,67.787A5.269,5.269,0,0,1,183.545,166.209Z" transform="translate(-178.276 -65.758)"/>
      <path id="Path_106" data-name="Path 106" class="cls-7" d="M279.2,100.782a5.268,5.268,0,0,1-3.725-8.993l13.134-13.134L275.479,65.522a5.268,5.268,0,1,1,7.45-7.451L299.788,74.93a5.268,5.268,0,0,1,0,7.451L282.929,99.24A5.252,5.252,0,0,1,279.2,100.782Z" transform="translate(-212.12 -56.529)"/>
    </g>
    <g id="Group_22" data-name="Group 22" transform="translate(92.724 106.973)">
      <path id="Path_107" data-name="Path 107" class="cls-8" d="M339.854,243H292.837V188.237a22.7,22.7,0,1,0-45.395,0v78H231.409a22.723,22.723,0,0,0-22.7,22.7v3.873a22.723,22.723,0,0,0,22.7,22.7h16.033v60.573a5.268,5.268,0,0,0,5.269,5.269H357.283a5.268,5.268,0,0,0,5.269-5.269V265.7A22.723,22.723,0,0,0,339.854,243Z" transform="translate(-208.712 -165.54)"/>
      <path id="Path_108" data-name="Path 108" class="cls-9" d="M339.854,243H292.837V188.237a22.7,22.7,0,1,0-45.395,0v78H231.409a22.723,22.723,0,0,0-22.7,22.7v3.873a22.723,22.723,0,0,0,22.7,22.7h16.033v68.651a5.268,5.268,0,0,0,5.269,5.269H357.283a5.268,5.268,0,0,0,5.269-5.269V265.7A22.723,22.723,0,0,0,339.854,243Z" transform="translate(-208.712 -165.54)"/>
    </g>
    <g id="Group_23" data-name="Group 23" transform="translate(176.668 184.395)">
      <path id="Path_109" data-name="Path 109" class="cls-10" d="M338.616,313.895a5.269,5.269,0,1,0,10.537,0V285.35H338.616Z" transform="translate(-338.616 -285.35)"/>
      <path id="Path_110" data-name="Path 110" class="cls-10" d="M380.878,285.35v28.544a5.269,5.269,0,1,0,10.537,0V285.35Z" transform="translate(-353.568 -285.35)"/>
    </g>
  </g>
</svg>
