<?xml version="1.0" encoding="utf-8"?>
<!-- Generator: Adobe Illustrator 19.0.0, SVG Export Plug-In . SVG Version: 6.00 Build 0)  -->
<svg version="1.1" id="Layer_1" xmlns="http://www.w3.org/2000/svg" xmlns:xlink="http://www.w3.org/1999/xlink" x="0px" y="0px"
	 viewBox="0 0 98 86" style="enable-background:new 0 0 98 86;" xml:space="preserve">
<style type="text/css">
	.st0{fill:url(#SVGID_1_);}
	.st1{fill:#FFFFFF;}
</style>
<linearGradient id="SVGID_1_" gradientUnits="userSpaceOnUse" x1="10.02" y1="42.62" x2="89.22" y2="42.62">
	<stop  offset="0" style="stop-color:#F8AC1C"/>
	<stop  offset="1" style="stop-color:#FFCB0A"/>
</linearGradient>
<path class="st0" d="M49.6,82.2C27.8,82.2,10,64.5,10,42.6S27.8,3,49.6,3c21.8,0,39.6,17.8,39.6,39.6S71.5,82.2,49.6,82.2z"/>
<path class="st1" d="M38,65.7c-1.5,0-2.7-1.3-2.7-2.8V22.3c0-1.6,1.2-2.8,2.7-2.8c0.5,0,1,0.1,1.5,0.4l35.1,20.3
	c0.9,0.5,1.5,1.4,1.5,2.4c0,1-0.5,1.9-1.5,2.4L39.4,65.3C39,65.6,38.5,65.7,38,65.7L38,65.7z"/>
</svg>
