<?xml version="1.0" encoding="utf-8"?>
<!-- Generator: Adobe Illustrator 19.0.0, SVG Export Plug-In . SVG Version: 6.00 Build 0)  -->
<svg version="1.1" id="Layer_1" xmlns="http://www.w3.org/2000/svg" xmlns:xlink="http://www.w3.org/1999/xlink" x="0px" y="0px"
	 viewBox="0 0 110.2 108.7" style="enable-background:new 0 0 110.2 108.7;" xml:space="preserve">
<style type="text/css">
	.st0{fill:#F8D048;}
	.st1{fill:#B8CBD2;}
	.st2{fill:#91A8B1;}
</style>
<g>
	<path class="st0" d="M102.4,28.5h-7.3c-0.2-1.4-0.5-2.7-1-3.9l6.3-3.6c1.2-0.7,1.6-2.2,0.9-3.3c-0.7-1.2-2.2-1.6-3.3-0.9l-6.3,3.6
		c-0.8-1.1-1.8-2-2.9-2.9l3.6-6.3c0.7-1.2,0.3-2.6-0.9-3.3c-1.2-0.7-2.6-0.3-3.3,0.9L84.6,15c-1.2-0.5-2.6-0.9-3.9-1V6.7
		c0-1.3-1.1-2.4-2.4-2.4c-1.3,0-2.4,1.1-2.4,2.4V14c-1.4,0.2-2.7,0.5-3.9,1.1l-3.6-6.3c-0.7-1.2-2.2-1.6-3.3-0.9
		c-1.2,0.7-1.6,2.2-0.9,3.3l3.6,6.3c-0.4,0.3-0.7,0.6-1.1,1c5.7,4.8,9.4,11.9,9.8,19.8c5,0.4,9.5,2.4,13.2,5.4
		c0.8-0.7,1.5-1.4,2.1-2.2l6.3,3.6c0.4,0.2,0.8,0.3,1.2,0.3c0.8,0,1.7-0.4,2.1-1.2c0.7-1.2,0.3-2.6-0.9-3.3l-6.3-3.6
		c0.5-1.2,0.9-2.6,1-4h7.3c1.3,0,2.4-1.1,2.4-2.4C104.9,29.6,103.8,28.5,102.4,28.5z"/>
	<path class="st1" d="M39.4,97h-2.5c-1.4,0-2.5,1.1-2.5,2.5v2.5c0,1.4,1.1,2.5,2.5,2.5h2.5c1.4,0,2.5-1.1,2.5-2.5v-2.5
		C42,98.2,40.8,97,39.4,97z"/>
	<path class="st1" d="M38.2,89.4v-2.5c0-1.4-1.1-2.5-2.5-2.5h-5.1c-1.4,0-2.5,1.1-2.5,2.5v2.5c0,1.4,1.1,2.5,2.5,2.5h5.1
		C37,91.9,38.2,90.8,38.2,89.4z"/>
	<path class="st1" d="M59.8,97h-5.1c-1.4,0-2.5,1.1-2.5,2.5v2.5c0,1.4,1.1,2.5,2.5,2.5h5.1c1.4,0,2.5-1.1,2.5-2.5v-2.5
		C62.4,98.2,61.2,97,59.8,97z"/>
	<path class="st1" d="M53.4,89.4v-2.5c0-1.4-1.1-2.5-2.5-2.5h-2.5c-1.4,0-2.5,1.1-2.5,2.5v2.5c0,1.4,1.1,2.5,2.5,2.5h2.5
		C52.3,91.9,53.4,90.8,53.4,89.4z"/>
	<path class="st2" d="M74.2,42.8c-1,0-1.9,0.1-2.8,0.2c0.2-1.2,0.3-2.4,0.3-3.6c0-12.6-10.2-22.8-22.8-22.8
		c-12.3,0-22.3,9.7-22.8,21.9C14.6,39,5.5,48.4,5.5,60c0,12,9.7,21.7,21.7,21.7h47c10.8,0,19.5-8.7,19.5-19.5
		C93.7,51.5,85,42.8,74.2,42.8z M47.1,76.6c0,1.4-1.1,2.5-2.5,2.5H42c-1.4,0-2.5-1.1-2.5-2.5v-2.5c0-1.4,1.1-2.5,2.5-2.5h2.5
		c1.4,0,2.5,1.1,2.5,2.5V76.6z M64.9,76.6c0,1.4-1.1,2.5-2.5,2.5h-2.5c-1.4,0-2.5-1.1-2.5-2.5v-2.5c0-1.4,1.1-2.5,2.5-2.5h2.5
		c1.4,0,2.5,1.1,2.5,2.5V76.6z"/>
	<path class="st1" d="M68.7,84.3h-2.5c-1.4,0-2.5,1.1-2.5,2.5v2.5c0,1.4,1.1,2.5,2.5,2.5h2.5c1.4,0,2.5-1.1,2.5-2.5v-2.5
		C71.3,85.4,70.1,84.3,68.7,84.3z"/>
</g>
</svg>
