<?xml version="1.0" encoding="utf-8"?>
<!-- Generator: Adobe Illustrator 19.0.0, SVG Export Plug-In . SVG Version: 6.00 Build 0)  -->
<svg version="1.1" id="Layer_1" xmlns="http://www.w3.org/2000/svg" xmlns:xlink="http://www.w3.org/1999/xlink" x="0px" y="0px"
	 viewBox="0 0 75.1 189.3" style="enable-background:new 0 0 75.1 189.3;" xml:space="preserve">
<style type="text/css">
	.st0{fill:#99A1AE;}
	.st1{display:none;}
	.st2{display:inline;fill:#FFFFFF;}
</style>
<g>
	<path class="st0" d="M22.6,91v30.9h30.9V91H22.6z M38.1,120.9c-8,0-14.5-6.5-14.5-14.5c0-8,6.5-14.5,14.5-14.5
		c8,0,14.5,6.5,14.5,14.5C52.5,114.4,46,120.9,38.1,120.9z"/>
	<g>
		<path class="st0" d="M38.1,106.9c-0.2,0-0.5-0.2-0.5-0.5c0-0.2,0.1-0.3,0.3-0.4v-3.2c-1.9,0.1-3.4,1.7-3.4,3.6
			c0,2,1.6,3.6,3.6,3.6c1.9,0,3.4-1.5,3.6-3.3h-3.2C38.3,106.8,38.2,106.9,38.1,106.9z"/>
		<path class="st0" d="M38.4,106.1h3.2c-0.1-1.8-1.6-3.2-3.4-3.3v3.2C38.3,106,38.4,106.1,38.4,106.1z"/>
		<path class="st0" d="M38.1,94.4c-6.6,0-12,5.4-12,12c0,6.6,5.4,12,12,12c6.6,0,12-5.4,12-12C50.1,99.8,44.7,94.4,38.1,94.4z
			 M41.9,106.7c-0.1,2-1.8,3.5-3.8,3.5c-2.1,0-3.8-1.7-3.8-3.8c0-2,1.6-3.7,3.6-3.8v-7.7h0.4v7.7c1.9,0.1,3.5,1.6,3.6,3.5h5.2v0.6
			H41.9z"/>
	</g>
	<path class="st0" d="M10.2,83.1H9.5v-0.4c0.1-0.1,0.2-0.2,0.2-0.3c0-0.2-0.2-0.4-0.4-0.4C9.1,82,9,82.2,9,82.4
		c0,0.1,0.1,0.3,0.2,0.3v0.4H8.5v0.4h0.6v41.1h0.4V83.6h0.6V83.1z"/>
	<path id="XMLID_41_" class="st0" d="M67.6,83.1h-0.6v-0.4c0.1-0.1,0.2-0.2,0.2-0.3c0-0.2-0.2-0.4-0.4-0.4c-0.2,0-0.4,0.2-0.4,0.4
		c0,0.1,0.1,0.3,0.2,0.3v0.4h-0.6v0.4h0.6v41.1h0.4V83.6h0.6V83.1z"/>
	<path class="st0" d="M67,124.6V88.1h-3.5V73.5h0v-3.4h0.6v-0.4h-0.6v-0.4c0.1-0.1,0.2-0.2,0.2-0.3c0-0.2-0.2-0.4-0.4-0.4
		c-0.2,0-0.4,0.2-0.4,0.4c0,0.1,0.1,0.3,0.2,0.3v0.4h-0.6v0.4h0.6v3.4H13v-3.4h0.6v-0.4H13v-0.4c0.1-0.1,0.2-0.2,0.2-0.3
		c0-0.2-0.2-0.4-0.4-0.4c-0.2,0-0.4,0.2-0.4,0.4c0,0.1,0.1,0.3,0.2,0.3v0.4H12v0.4h0.6v3.4h0v14.6H9.1v36.5H8.2v2.1h59.1v-2.1H67z
		 M52.7,77.3H56v7.7h-3.3V77.3z M48.1,77.3h3.3v7.7h-3.3V77.3z M43.4,77.3h3.3v7.7h-3.3V77.3z M38.7,77.3H42v7.7h-3.3V77.3z
		 M34.1,77.3h3.3v7.7h-3.3V77.3z M29.4,77.3h3.3v7.7h-3.3V77.3z M24.8,77.3h3.3v7.7h-3.3V77.3z M20.1,77.3h3.3v7.7h-3.3V77.3z
		 M54.9,123.2H21.2V89.6h33.6V123.2z"/>
	<path id="XMLID_62_" class="st0" d="M67.3,133.2v-2.4H8.2v2.4h5.6v57.1c3.3,0,6.6,0,9.9,0v-57.1h4.3v46.1c2.5,0,5.4,0,7.8,0v-46.1
		h4.3v49.1c2.4,0,5.3,0,7.8,0v-49.1h4.3v57.1c3.3,0,6.6,0,9.9,0v-57.1H67.3z"/>
	<path class="st0" d="M62.8,72.5c-0.1-0.1-0.1-0.2-0.2-0.3c-0.9-1.2-2.4-3.2-4-5.3h0c-1.6-2.1-3.3-4.3-4.7-6.2
		c-4-5.1-7.1-9.4-7.1-9.4h1.4v-2v-9.5h-0.1c0,0-3.8-4.7-5.8-11.9c-1.4-5-3.1-11.5-3.9-14.9v-0.7c0.3-0.1,0.5-0.2,0.5-0.3
		c0-0.1-0.2-0.3-0.5-0.3V7.9h1.3V7.1h-1.3V6.2c0.2-0.1,0.4-0.4,0.4-0.6c0-0.4-0.3-0.8-0.8-0.8c-0.4,0-0.8,0.3-0.8,0.8
		c0,0.3,0.2,0.5,0.4,0.6v0.8h-1.3v0.8h1.3v3.7c-0.3,0.1-0.5,0.2-0.5,0.3c0,0.2,0.2,0.3,0.5,0.3v0.7c-0.8,3.4-2.5,9.9-3.9,14.9
		c-2.1,7.2-5.8,11.9-5.8,11.9h0v9.5v2h1.4c0,0-3.1,4.3-7.1,9.4c-2.8,3.6-6.5,8.6-8.4,11.1c-0.1,0.1-0.1,0.2-0.2,0.3
		c-0.1,0.1-0.2,0.3-0.3,0.4H62.8z"/>
</g>
<g id="XMLID_57_" class="st1">
	<rect id="XMLID_58_" x="26.9" y="188.3" class="st2" width="10.2" height="21.5"/>
	<path id="XMLID_67_" class="st2" d="M11.2,192.5v17.3h13.6v-17.3H11.2z M13.6,196.3c4,0,7,0,11,0C20.6,196.3,17.6,196.3,13.6,196.3
		z"/>
	<rect id="XMLID_63_" x="51.3" y="190.1" class="st2" width="12.4" height="19.7"/>
	<rect id="XMLID_64_" x="39.6" y="181.7" class="st2" width="10.2" height="28.1"/>
</g>
</svg>
