<svg id="Layer_1" xmlns="http://www.w3.org/2000/svg" viewBox="411 -285 1902 1178"><style>.st0{display:none}.st1{display:inline;fill:#14243b}.st2{opacity:.36;fill:#1d788b;enable-background:new}.st3{fill:#262f34}.st3,.st4{display:inline}.st5{fill:#585757}.st6{fill:#3d3d3c}.st7{fill:#f0e0b1}.st10,.st8,.st9{display:inline;fill:#585757}.st10,.st9{fill:#3d3d3c}.st10{fill:#f0e0b1}.st11{fill:#e74b60}.st12{fill:#1d788b}.st13{fill:#e74b60;stroke:#14243b;stroke-width:.512;stroke-miterlimit:10}.st14{fill:#ebd1a0}.st15,.st16,.st17,.st18,.st19{fill:none;stroke:#9abda9;stroke-width:.512;stroke-miterlimit:10}.st16,.st17,.st18,.st19{stroke-width:1.0241}.st17,.st18,.st19{fill:#14243b;stroke:#1d788b;stroke-width:.8506}.st18,.st19{fill:#1d788b}.st19{fill:#9abda9;stroke-width:.1128}.st20{fill:#14243b}.st21,.st22,.st23,.st24{fill:none;stroke:#e1ddbe;stroke-width:.512;stroke-miterlimit:10}.st22,.st23,.st24{fill:#1d788b}.st23,.st24{fill:#ebd1a0;stroke:#1d788b;stroke-width:.7306}.st24{stroke-width:.6475}.st25,.st26{fill:#14243b;stroke:#1d788b;stroke-width:1.1133}.st26{fill:#ebd1a0;stroke-width:.8067;stroke-miterlimit:10}.st27{fill:#9abda9}.st28,.st29{fill:none;stroke:#1d788b;stroke-width:.8731;stroke-miterlimit:10}.st29{stroke-width:.8993}.st30{font-family:&apos;Bebas&apos;}.st31{font-size:12.103px}</style><g id="Layer_2_1_" class="st0"><path class="st1" d="M2477 1109.2l-2138.2-.8v-248l2138.2.8z"/><path class="st2" d="M769 484.9h2072.4v3.9H769zM771.4 491.3h2072.4v3.8H771.4z"/></g><g id="Layer_1_2_"><g id="Layer_1_1_" class="st0"><path class="st3" d="M767.1 582.6H2792v51H767.1z"/><g id="front_building" class="st4"><g id="lamp_1_"><path class="st5" d="M1020.6 498.7h7.4v60.5h-7.4z"/><path class="st6" d="M1017.3 506h14.1v5.4h-14.1z"/><path class="st5" d="M1021 442.4h6.5v21.4h-6.5z"/><path class="st6" d="M1018.1 450.1h12.5v4.8h-12.5z"/><path class="st5" d="M1050 464.8v10h-10v6.6h16.6v-16.6z"/><path class="st6" d="M1047 469.8h12.5v2.4H1047z"/><path transform="rotate(-45.195 1024.407 481.324)" class="st5" d="M1008.1 465h32.7v32.6h-32.7z"/><path class="st7" d="M1059.4 469.8h-12.2l-5.4-27.4h23z"/><path class="st6" d="M1053.3 431.8l-11.5 10.6h23z"/><path class="st5" d="M998.5 464.8v10h10v6.6h-16.6v-16.6z"/><path class="st6" d="M989 469.8h12.5v2.4H989z"/><path class="st7" d="M989.1 469.8h12.2l5.4-27.4h-23z"/><path class="st6" d="M995.2 431.8l11.5 10.6h-23zM1018.1 442.7h12.5v2.4h-12.5z"/><path class="st7" d="M1030.4 442.7h-12.2l-5.4-27.3h23z"/><path class="st6" d="M1024.3 404.7l-11.5 10.7h23z"/><circle class="st6" cx="1024.3" cy="481.9" r="9.3"/><path class="st6" d="M1013.1 558.6h22.3v44.6h-22.3z"/></g></g><path class="st8" d="M2515.3 499.5h7.4V560h-7.4z"/><path class="st9" d="M2511.9 506.8h14.1v5.4h-14.1z"/><path class="st8" d="M2515.7 443.2h6.5v21.4h-6.5z"/><path class="st9" d="M2512.7 450.9h12.5v4.8h-12.5z"/><path class="st8" d="M2544.7 465.6v10h-10.1v6.6h16.6v-16.6z"/><path class="st9" d="M2541.7 470.6h12.5v2.4h-12.5z"/><path transform="rotate(-45.195 2518.954 482.134)" class="st8" d="M2502.6 465.8h32.7v32.6h-32.7z"/><path class="st10" d="M2554.1 470.6h-12.3l-5.3-27.4h22.9z"/><path class="st9" d="M2548 432.6l-11.5 10.6h22.9z"/><path class="st8" d="M2493.1 465.6v10h10.1v6.6h-16.6v-16.6z"/><path class="st9" d="M2483.6 470.6h12.5v2.4h-12.5z"/><path class="st10" d="M2483.7 470.6h12.3l5.4-27.4h-23z"/><path class="st9" d="M2489.9 432.6l11.5 10.6h-23zM2512.7 443.5h12.5v2.4h-12.5z"/><path class="st10" d="M2525.1 443.5h-12.3l-5.3-27.4h23z"/><path class="st9" d="M2519 405.5l-11.5 10.6h23z"/><circle class="st9" cx="2519" cy="482.7" r="9.3"/><path class="st9" d="M2507.8 604v-44.6h22.3V604"/></g><g id="Layer_2"><path class="st11" d="M1895.3 850.8s-2.7 0-4.3 5.1c-1.6 5.2.3 6.4.3 6.4"/><path class="st12" d="M1976.8 822.3s-.3-6.5-4.7-11.7c-1.8-2-4.4-3.1-7-3.1l-25.1.5c-2.4.1-4.7 1.1-6.4 2.8-4.5 4.7-5 11.3-5 11.3"/><path class="st13" d="M1936.5 811.4h32.1v8.4h-32.1z"/><path class="st12" d="M1932.8 881.3h82.4s-1-19 14-19c13.7 0 14.1 15.4 14.1 15.4s1.9.8 3.2 0c1.2-.8 3.3-11.3 3.3-11.3l-2.4-2.1s.8-2.8 0-5.1c-.8-2.4-2.9-4.5-2.9-4.5-6.5-9.3-36.3-10.6-36.3-10.6s-14-15.2-21.2-18.9c-7.2-3.7-29.3-3.3-29.3-3.3s-31.8-1.3-42.9 3.3c-9.2 3.8-14.8 21.7-14.8 21.7s-3.3.3-4.7 4c0 0-2.3 1.5-3.9 7.1 0 0-.8 3.5.5 6.4l-2.6.8v5.5s1.5 4.4 3.6 5.6c2.1 1.2 5-.6 9 3h3.7V878s-1.6.1-1.7-.6c-.1-.8 0-13.7 11.9-14.8 11.9-1.2 18.5 7.8 17.1 18.1l-.1.6z"/><path class="st14" d="M1976.2 846.3h29.4s-10.4-13.2-15.8-16.1c-4-2.2-12.4-2.8-16.1-2.9-1-.1-1.8.9-1.6 1.8l2.5 15.8c.2.9.8 1.4 1.6 1.4zM1938.9 829.3l-2.2 15.1c-.2 1 .6 1.9 1.7 1.9h27.3c.9 0 1.7-.8 1.7-1.7l-.3-14.9c-.1-1.7-1.5-3.1-3.2-3.1h-21.8c-1.6 0-2.9 1.2-3.2 2.7zM1910.1 845.9h18.8c.4 0 .8-.3.9-.8l3.3-16.3c.1-.6-.4-1.2-1-1.1-3.6.3-13.7 1.1-16.2 3.2-3.1 2.6-6.7 11.4-6.7 11.4s-1.5 2.7.9 3.6z"/><path class="st15" d="M1971.8 880.6s1.2-22.1 0-32.2"/><path class="st16" d="M1908.7 865.5h-19.4"/><circle class="st17" cx="1918.8" cy="877.8" r="12.2"/><circle class="st18" cx="1918.8" cy="877.8" r="7"/><circle class="st19" cx="1918.8" cy="877.8" r="2.7"/><circle class="st17" cx="2029.1" cy="877.2" r="12.2"/><circle class="st18" cx="2029.1" cy="877.2" r="7"/><circle class="st19" cx="2029.1" cy="877.2" r="2.7"/><path class="st16" d="M2009.8 848.5h-106.1"/><path class="st20" d="M1981.1 857.3h-6c-.4 0-.7-.3-.7-.7 0-.4.3-.7.7-.7h6c.4 0 .7.3.7.7 0 .4-.3.7-.7.7zM1940.1 857.3h-6c-.4 0-.7-.3-.7-.7 0-.4.3-.7.7-.7h6c.4 0 .7.3.7.7 0 .4-.3.7-.7.7z"/><path class="st15" d="M1968 822s3.3 15.9 3.8 26.5M1938 821.8c-2.3 7.2-5.2 26.7-5.2 26.7"/><path class="st21" d="M2013.5 881.3s2.6-19.6 0-27.1c-2.6-7.4-5-6.7-5-6.7"/><path class="st16" d="M1904.5 872.8l-14.7-.8M2012.1 850.8h-116.8"/><path class="st22" d="M1999.3 848.9v-8c0-.3.3-.4.5-.3.9.4 2.9 1.6 2.9 5.2 0 2.1-1.9 3.1-2.9 3.5-.3.1-.5-.1-.5-.4z"/><path class="st15" d="M1931.4 848.5v22.3M1964.9 874.1h-32.1M1964.9 875.3h-32.1"/><path class="st21" d="M2014 873.5h-32.2M2014 874.7h-32.2M2043.5 853.5s-8.5-3.7-28.8-2.1M2049.7 866.4h-8.3"/><g><path class="st20" d="M1942.6 813.3c.4 0 .7.1.9.4.2.2.3.5.3.9v.8c0 .3-.1.6-.4.9-.2.3-.5.4-.9.4h-.4v2h-.8v-5.3l1.3-.1zm.4 1.2c0-.2-.1-.3-.1-.3-.1-.1-.2-.1-.3-.1h-.5v1.7h.5c.1 0 .2-.1.3-.1.1-.1.1-.2.1-.3v-.9zM1945.2 818.5h-.8v-5.3h.8v5.3zM1948.8 818.5h-.9l-.6-1.7-.6 1.7h-.9l1-2.6-1-2.6h.9l.6 1.6.6-1.6h.9l-1 2.6 1 2.6zM1949.5 818.5v-5.3h2.3v.8h-1.5v1.5h1.1v.8h-1.1v1.5h1.5v.8l-2.3-.1zM1954.4 818.5h-2.2v-5.3h.8v4.5h1.3v.8zM1956 817.3l-.2 1.2h-.8l.9-5.3h1.1l.9 5.3h-.8l-.2-1.2h-.9zm.4-2.8l-.3 2.1h.6l-.3-2.1zM1959.8 813.3c.4 0 .8.1 1 .4.2.2.3.5.3.9v.8c0 .4-.2.7-.4 1l.6 2.3h-.9l-.5-2h-.5v2h-.8v-5.3l1.2-.1zm.5 1.2c0-.3-.2-.4-.4-.4h-.5v1.7h.5c.1 0 .2-.1.3-.1.1-.1.1-.2.1-.3v-.9zM1962.5 814h-.9v-.8h2.5v.8h-.9v4.5h-.8l.1-4.5z"/></g><g><path class="st11" d="M781.3 848.5s-3 0-4.7 5.6c-1.8 5.7.4 7 .4 7"/><path class="st12" d="M870.7 817.3s-.3-7.1-5.2-12.8c-2-2.2-4.8-3.4-7.7-3.4l-27.6.6c-2.7.1-5.2 1.2-7 3.1-4.9 5.2-5.5 12.4-5.5 12.4"/><path class="st13" d="M826.4 805.3h35.2v9.2h-35.2z"/><path class="st12" d="M822.4 882h90.4s-1.1-20.8 15.3-20.8c15 0 15.4 16.9 15.4 16.9s2.1.9 3.5 0 3.6-12.4 3.6-12.4l-2.6-2.2s.9-3 0-5.6c-.9-2.6-3.2-5-3.2-5-7.1-10.2-39.8-11.7-39.8-11.7s-15.3-16.7-23.2-20.8-32.1-3.6-32.1-3.6-34.9-1.4-47.1 3.6c-10.1 4.1-16.3 23.8-16.3 23.8s-3.6.3-5.1 4.4c0 0-2.5 1.7-4.3 7.8 0 0-.9 3.8.6 7l-2.9.9v6s1.6 4.9 4 6.2c2.3 1.3 5.4-.7 9.9 3.3h4v-1.4s-1.7.1-1.8-.7c-.1-.8 0-15 13-16.3 13-1.3 20.3 8.6 18.7 19.9v.7z"/><path class="st14" d="M870.1 843.6h32.3s-11.4-14.4-17.3-17.7c-4.4-2.4-13.6-3-17.7-3.2-1.1-.1-2 .9-1.8 2l2.8 17.3c.1 1 .8 1.6 1.7 1.6zM829.2 825l-2.4 16.6c-.2 1.1.7 2.1 1.8 2.1h29.9c1 0 1.8-.8 1.8-1.9l-.4-16.3c-.1-1.9-1.6-3.4-3.5-3.4h-23.9c-1.6-.1-3.1 1.2-3.3 2.9zM797.6 843.1h20.6c.5 0 .9-.4 1-.8l3.7-17.9c.1-.7-.4-1.3-1.1-1.2-3.9.3-15 1.2-17.8 3.6-3.4 2.8-7.4 12.5-7.4 12.5s-1.7 2.8 1 3.8z"/><path class="st15" d="M865.2 881.2s1.4-24.3 0-35.3"/><path class="st16" d="M796.1 864.6h-21.4"/><circle class="st17" cx="807.1" cy="878.1" r="13.4"/><circle class="st18" cx="807.1" cy="878.1" r="7.6"/><circle class="st19" cx="807.1" cy="878.1" r="3"/><circle class="st17" cx="928.1" cy="877.5" r="13.4"/><circle class="st18" cx="928.1" cy="877.5" r="7.6"/><circle class="st19" cx="928.1" cy="877.5" r="3"/><path class="st16" d="M906.9 845.9H790.5"/><path class="st20" d="M875.5 855.6h-6.6c-.4 0-.8-.4-.8-.8s.4-.8.8-.8h6.6c.4 0 .8.4.8.8 0 .5-.4.8-.8.8zM830.5 855.6h-6.6c-.4 0-.8-.4-.8-.8s.4-.8.8-.8h6.6c.4 0 .8.4.8.8-.1.5-.4.8-.8.8z"/><path class="st15" d="M861 816.9s3.6 17.4 4.2 29.1M828.1 816.7c-2.5 7.9-5.7 29.2-5.7 29.2"/><path class="st21" d="M911 882s2.9-21.5 0-29.7-5.4-7.4-5.4-7.4"/><path class="st16" d="M791.4 872.7l-16.1-.9M909.4 848.5H781.3"/><path class="st22" d="M895.3 846.5v-8.8c0-.3.3-.5.5-.4 1 .4 3.1 1.8 3.1 5.7 0 2.3-2.1 3.4-3.1 3.8-.2.1-.5 0-.5-.3z"/><path class="st15" d="M821 845.9v24.5M857.6 874h-35.2M857.6 875.3h-35.2"/><path class="st21" d="M911.4 873.4h-35.1M911.4 874.7h-35.1M943.9 851.5s-9.3-4-31.6-2.2M950.7 865.6h-9.1"/><g><path class="st20" d="M833.1 807.3c.4 0 .8.1 1 .4.2.2.4.6.4 1v.8c0 .4-.1.7-.4 1-.2.3-.6.4-.9.4h-.5v2.2h-.9v-5.8h1.3zm.6 1.4c0-.2-.1-.3-.1-.4-.1-.1-.2-.1-.4-.1h-.5v1.8h.5c.1 0 .2-.1.4-.1.1-.1.1-.2.1-.4v-.8zM836.1 813.1h-.9v-5.8h.9v5.8zM840 813.1h-1l-.7-1.8-.7 1.8h-.9l1.1-2.9-1.1-2.9h.9l.7 1.8.7-1.8h.9l-1.1 2.9 1.2 2.9zM840.8 813.1v-5.8h2.5v.9h-1.6v1.6h1.2v.9h-1.2v1.6h1.6v.9l-2.5-.1zM846.2 813.1h-2.4v-5.8h.9v4.9h1.5v.9zM847.9 811.8l-.2 1.3h-.9l1-5.8h1.2l.9 5.8h-.9l-.2-1.3h-.9zm.5-3.2l-.3 2.2h.7l-.4-2.2zM852.1 807.3c.5 0 .8.1 1.1.4.2.2.3.5.3 1v.8c0 .4-.2.8-.5 1.1l.7 2.5h-.9l-.5-2.2h-.6v2.2h-.9v-5.8h1.3zm.5 1.4c0-.4-.2-.5-.5-.5h-.5v1.8h.5c.1 0 .2-.1.4-.1.1-.1.1-.2.1-.4v-.8zM855 808.2h-.9v-.9h2.7v.9h-.9v4.9h-.9v-4.9z"/></g></g><g><path class="st11" d="M1709.2 884l55.7.6c3.5 0 6.5-2.9 6.5-6.4v-15c0-20-3.1-39.9-9-59l-10.4-33c-.8-2.6-3.3-4.4-6-4.4h-273.6c-2.9 0-5.4 2.2-5.6 5.2l-7.6 102c-.1 1.4.8 2.7 2.2 3l27.9 5 39.1.5c-.7-1.9-1.2-4-1.2-6.1 0-8.9 7.3-16.2 16.2-16.2 8.9 0 16.2 7.3 16.2 16.2 0 2.2-.5 4.4-1.3 6.3l121 1.3c-.7-1.9-1.2-4-1.2-6.1 0-8.9 7.3-16.2 16.2-16.2s16.2 7.3 16.2 16.2c-.1 2-.5 4.1-1.3 6.1z"/><path class="st23" d="M1513.9 798H1483c-1.7 0-3.1-1.4-3.1-3.1v-20.8c0-1.7 1.4-3.1 3.1-3.1h30.9c1.7 0 3.1 1.4 3.1 3.1V795c0 1.6-1.4 3-3.1 3zM1557.4 798H1522c-1.6 0-2.9-1.3-2.9-2.9v-21c0-1.6 1.3-2.9 2.9-2.9h35.4c1.6 0 2.9 1.3 2.9 2.9v21c0 1.6-1.4 2.9-2.9 2.9zM1564.7 849.5h-35.4c-1.6 0-2.9-1.3-2.9-2.9v-21c0-1.6 1.3-2.9 2.9-2.9h35.4c1.6 0 2.9 1.3 2.9 2.9v21c0 1.6-1.2 2.9-2.9 2.9zM1639.2 849.5h-35.4c-1.6 0-2.9-1.3-2.9-2.9v-21c0-1.6 1.3-2.9 2.9-2.9h35.4c1.6 0 2.9 1.3 2.9 2.9v21c0 1.6-1.2 2.9-2.9 2.9zM1682.2 849.5h-35.4c-1.6 0-2.9-1.3-2.9-2.9v-21c0-1.6 1.3-2.9 2.9-2.9h35.4c1.6 0 2.9 1.3 2.9 2.9v21c0 1.6-1.3 2.9-2.9 2.9zM1629.7 798h-35.4c-1.6 0-2.9-1.3-2.9-2.9v-21c0-1.6 1.3-2.9 2.9-2.9h35.4c1.6 0 2.9 1.3 2.9 2.9v21c0 1.6-1.3 2.9-2.9 2.9zM1585.8 798H1566c-2 0-3.5-1.6-3.5-3.5v-19.7c0-2 1.6-3.5 3.5-3.5h19.7c2 0 3.5 1.6 3.5 3.5v19.7c.1 2-1.5 3.5-3.4 3.5zM1673.2 798.1h-35.4c-1.6 0-2.9-1.3-2.9-2.9v-21c0-1.6 1.3-2.9 2.9-2.9h35.4c1.6 0 2.9 1.3 2.9 2.9v21c0 1.6-1.3 2.9-2.9 2.9zM1701.5 798.1h-19.7c-2 0-3.5-1.6-3.5-3.5v-19.7c0-2 1.6-3.5 3.5-3.5h19.7c2 0 3.5 1.6 3.5 3.5v19.7c.1 2-1.5 3.5-3.5 3.5z"/><path class="st24" d="M1722.7 770.5h11.2c7.3 0 13.7 4.4 16.5 11.1l4.5 10.9c1.2 3-1 6.3-4.3 6.3h-27.7c-2.5 0-4.6-2-4.6-4.6v-19.1c-.2-2.6 1.8-4.6 4.4-4.6z"/><path class="st23" d="M1573 822.6h22.6c1.8 0 3.2 1.4 3.2 3.2v20.5c0 1.8-1.4 3.2-3.2 3.2H1573c-1.8 0-3.2-1.4-3.2-3.2v-20.5c0-1.7 1.4-3.2 3.2-3.2zM1508.7 822.6h12.3c1.7 0 3.1 1.4 3.1 3.1v20.8c0 1.7-1.4 3.1-3.1 3.1h-12.3c-1.7 0-3.1-1.4-3.1-3.1v-20.8c0-1.7 1.4-3.1 3.1-3.1zM1690.2 822.6h12.3c1.7 0 3.1 1.4 3.1 3.1v20.8c0 1.7-1.4 3.1-3.1 3.1h-12.3c-1.7 0-3.1-1.4-3.1-3.1v-20.8c0-1.7 1.4-3.1 3.1-3.1zM1500.8 849.5h-17.7c-1.7 0-3.1-1.4-3.1-3.1v-20.8c0-1.7 1.4-3.1 3.1-3.1h17.7c1.7 0 3.1 1.4 3.1 3.1v20.8c-.1 1.7-1.5 3.1-3.1 3.1z"/><circle class="st25" cx="1543.4" cy="876.1" r="14.7"/><circle class="st25" cx="1694.2" cy="878.3" r="14.7"/><path class="st26" d="M1763 852.1h-33.4c-1.1 0-2.1-.9-2.1-2.1v-27.1c0-1.1.9-2.1 2.1-2.1h31.6c1.7 0 3.1 1.2 3.3 2.8l3.4 22.7c.5 3.1-1.8 5.8-4.9 5.8z"/><circle class="st12" cx="1543.4" cy="876.1" r="9.1"/><circle class="st27" cx="1543.4" cy="876.1" r="6.1"/><circle class="st12" cx="1694.2" cy="878.3" r="9.1"/><circle class="st27" cx="1694.2" cy="878.3" r="6.1"/><path class="st28" d="M1479.9 819.2H1709"/><path class="st29" d="M1479.9 801.8H1709"/><path class="st28" d="M1480.2 853.5H1709"/><path class="st12" d="M1479.9 801.8H1709v17.3h-229.1z"/><text transform="translate(1488.709 815.216)" class="st14 st30 st31">Digital Signage Solution for Everyone</text></g></g></g></svg>