<svg id="Layer_1" xmlns="http://www.w3.org/2000/svg" viewBox="411 -285 1902 1178"><style>.st0{display:none}.st1{display:inline;opacity:.33}.st2{fill:#bbbdbf}.st3{fill:#f1f2f2}.st4{fill:#9b9a9b}.st5{fill:#3d3d3c}.st6{fill:#70706f}.st7{fill:#c9c8c8}.st8{display:none;fill:#9b9a9b}.st9{display:inline}.st10{fill:#fff}.st11{fill:#d1d3d4}.st12{opacity:.55}.st13{opacity:.16;fill:#fff;enable-background:new}</style><g id="Layer_1_1_" class="st0"><g id="back_building" class="st1"><path class="st2" d="M2254.5 53.1H2369v511.6h-114.5z"/><path class="st3" d="M2708.5 95V81h-16.9V67.2h-14.8V53.3h-28.6v-77.2h-10.9v77.2h-28.5v13.9h-14.9V81h-16.8v14h-15.5v471.6H2724V95z"/><path class="st4" d="M1007.4 58.6v142.6h-40v366.4h218.2v-509z"/><path class="st5" d="M937.5 162.7V44.3H899v-71.2h-77v594.5h154V162.7zM1680.1-173.9l-118 114.7v636.9h236V-59.2z"/><path class="st6" d="M1489.5 2.6h191.9v565.5h-191.9z"/><path class="st2" d="M1751.7 2.6h227v567.9h-227z"/><path class="st7" d="M1342.5-47v-31h-9.7v-33h-21.4v-62h-86.3v62h-18.4v33h-35v646.1h196V-47z"/><path class="st8" d="M1241.6-174h18.4v742.1h-18.4zM1206.7-111h18.4v679.1h-18.4zM1276.5-174h18.4v742.1h-18.4zM1311.4-111h18.4v679.1h-18.4z"/></g><g id="cloud_4_" class="st9"><g id="cloud_1_"><path class="st10" d="M2021.7-328.8c0-7.8-6.3-14.1-14.1-14.1-.7 0-1.4.1-2 .2-3-5.9-9.2-10-16.4-10-2.7 0-5.2.6-7.5 1.6-3.9-8.7-12.6-14.7-22.7-14.7-11.6 0-21.4 8-24.2 18.7-1.1-.2-2.2-.4-3.4-.4-9.1 0-16.4 7.3-16.4 16.4 0 8.8 7 16 15.8 16.4h78v-.1c7.2-.5 12.9-6.6 12.9-14z"/><path class="st11" d="M2016.6-329.1c-4.8 0-9.2-4.3-8.5-8 .8 6.9-.6 11.9-6.5 12.3-8.8.7-14.2-8.3-16.4-12.3-.1 8.8 2 15.9-11.4 16.7-14.2.9-20.8-14.7-20.8-13 0 7.6-4.2 16.4-11.8 16.4-1 0-4.4-.2-5.3-.4-.3.2-2.6.7-3 .9l73.1-.1v-.1c6.7-.5 11.9-6 12.2-12.7-.4.3-1 .3-1.6.3z"/></g><g id="cloud_2_" class="st12"><path class="st10" d="M1286-488.4c0-8.6-7-15.6-15.6-15.6-.8 0-1.5.1-2.2.2-3.4-6.6-10.2-11.1-18.1-11.1-2.9 0-5.7.6-8.2 1.7-4.3-9.6-13.9-16.2-25.1-16.2-12.8 0-23.6 8.8-26.7 20.7-1.2-.3-2.5-.4-3.8-.4-10 0-18.1 8.1-18.1 18.1 0 9.8 7.7 17.7 17.4 18.1h86.1v-.1c8-.6 14.3-7.3 14.3-15.4z"/><path class="st11" d="M1280.4-488.8c-5.3 0-10.2-4.8-9.4-8.8.8 7.6-.7 13.1-7.1 13.6-9.7.7-15.7-9.2-18.1-13.6-.1 9.7 2.2 17.5-12.6 18.4-15.7 1-23-16.2-23-14.3 0 8.4-4.7 18.1-13 18.1-1.1 0-4.9-.2-5.9-.4-.3.3-2.9.8-3.3 1l80.7-.1v-.1c7.4-.6 13.2-6.6 13.5-14-.5.1-1.1.2-1.8.2z"/></g></g></g><g id="Layer_2"><g id="clouds"><path class="st13" d="M1315.7 109.5c0-11.3-9.1-20.4-20.4-20.4H969.2c-11.3 0-20.4 9.1-20.4 20.4 0 11.3 9.1 20.4 20.4 20.4h78.1c11.3 0 20.4 9.1 20.4 20.4 0 11.3-9.1 20.4-20.4 20.4h-19c-11.3 0-20.4 9.1-20.4 20.4 0 11.3 9.1 20.4 20.4 20.4h326.1c11.3 0 20.4-9.1 20.4-20.4 0-11.3 9.1-20.4 20.4-20.4h19c11.3 0 20.4-9.1 20.4-20.4 0-11.3-9.1-20.4-20.4-20.4H1336c-11.2 0-20.3-9.2-20.3-20.4zM1878-111.7c0-9.7-7.9-17.6-17.6-17.6h-41.6c-9.7 0-17.6-7.9-17.6-17.6v-6.8c0-9.7 7.9-17.6 17.6-17.6h229c9.7 0 17.6 7.9 17.6 17.6v2.8c0 9.7 7.9 17.6 17.6 17.6h41.6c9.7 0 17.6 7.9 17.6 17.6v6.8c0 9.7-7.9 17.6-17.6 17.6h-52.7c-9.7 0-17.6 7.9-17.6 17.6v4c0 9.7-7.9 17.6-17.6 17.6h-229c-9.7 0-17.6-7.9-17.6-17.6v-6.8c0-9.7 7.9-17.6 17.6-17.6h52.7c9.8 0 17.6-7.9 17.6-17.6zM513.4-184c0-9.7-7.9-17.6-17.6-17.6h-41.6c-9.7 0-17.6-7.9-17.6-17.6v-6.8c0-9.7 7.9-17.6 17.6-17.6h229c9.7 0 17.6 7.9 17.6 17.6v2.8c0 9.7 7.9 17.6 17.6 17.6H760c9.7 0 17.6 7.9 17.6 17.6v6.8c0 9.7-7.9 17.6-17.6 17.6h-52.7c-9.7 0-17.6 7.9-17.6 17.6v4c0 9.7-7.9 17.6-17.6 17.6h-229c-9.7 0-17.6-7.9-17.6-17.6v-6.8c0-9.7 7.9-17.6 17.6-17.6h52.7c9.8-.1 17.6-7.9 17.6-17.6zM1201.7-99.6h235.9c12 0 21.7 9.7 21.7 21.7s-9.7 21.7-21.7 21.7h-235.9c-12 0-21.7-9.7-21.7-21.7s9.7-21.7 21.7-21.7zM2000.3 8.9h235.9c12 0 21.7 9.7 21.7 21.7s-9.7 21.7-21.7 21.7h-235.9c-12 0-21.7-9.7-21.7-21.7.1-12 9.8-21.7 21.7-21.7z"/></g></g></svg>