<svg xmlns="http://www.w3.org/2000/svg" viewBox="5870.116 -1218 169.305 36.103">
  <defs>
    <style>
      .cls-1 {
        fill: #333746;
      }

      .cls-2 {
        fill: #9bbcab;
      }

      .cls-3 {
        fill: #ebd1a0;
      }

      .cls-4 {
        fill: #e64b60;
      }

      .cls-5, .cls-6, .cls-7, .cls-8 {
        fill: #1d788b;
      }

      .cls-5 {
        opacity: 0.7;
      }

      .cls-6 {
        opacity: 0.4;
      }

      .cls-7 {
        opacity: 0.2;
      }
    </style>
  </defs>
  <g id="Symbol_5_10" data-name="Symbol 5 – 10" transform="translate(5813 -1246)">
    <g id="Group_9" data-name="Group 9" transform="translate(98.895 31)">
      <path id="Path_1" data-name="Path 1" class="cls-1" d="M-262.121,299.2h-2.748a.116.116,0,0,1-.131-.131V272.119a.116.116,0,0,1,.131-.131h2.748a.116.116,0,0,1,.131.131v1.614a7.806,7.806,0,0,1,5.015-1.744h7.981q3.271,0,4.318,3.533a9.923,9.923,0,0,1,.044,1.047v12.474a4.277,4.277,0,0,1-3.1,4.361,3.875,3.875,0,0,1-1.4.174h-7.72a7.992,7.992,0,0,1-5.146-1.744v7.24A.116.116,0,0,1-262.121,299.2Zm14.48-10.118V276.524a1.336,1.336,0,0,0-1.178-1.483h-8.2a4.79,4.79,0,0,0-4.667,3.4,5.627,5.627,0,0,0-.262,1.745v5.059a4.86,4.86,0,0,0,3.489,5.059,4.146,4.146,0,0,0,1.526.262h8.025C-248.165,290.567-247.729,290.087-247.642,289.084Zm6.324-21.763h2.748a.116.116,0,0,1,.131.131v3.228a.116.116,0,0,1-.131.131h-2.748a.116.116,0,0,1-.131-.131v-3.228Q-241.383,267.321-241.318,267.321Zm0,5.19h2.748a.116.116,0,0,1,.131.131v20.934a.116.116,0,0,1-.131.131h-2.748a.116.116,0,0,1-.131-.131V272.642Q-241.383,272.511-241.318,272.511Zm5.408-.872h3.358l5.8,7.24c3.533-4.492,5.452-6.935,5.8-7.24h3.4v.131c-4.623,5.975-7.109,9.159-7.371,9.551,5.234,7.589,7.981,11.645,8.33,12.255h-3.489c-.523-.611-2.442-3.489-5.844-8.592a5.175,5.175,0,0,0-.916-1.221c0,.087-2.181,3.4-6.5,9.813h-3.489v-.044l8.2-12.212-7.458-9.639Zm25.688.305h12.735q3.533,0,4.449,3.664a8.76,8.76,0,0,1,.044,1.09v5.844a.116.116,0,0,1-.131.131h-18.448V289.3c.131.829.523,1.221,1.221,1.221H-195a.116.116,0,0,1,.131.131V293.4a.116.116,0,0,1-.131.131h-15.265c-2.006,0-3.4-1.09-4.187-3.227a3.319,3.319,0,0,1-.131-.916V276.044c0-1.832,1.09-3.14,3.227-3.969a5.324,5.324,0,0,1,1.134-.131Zm-1.352,7.632h15.526v-3.14c-.087-1-.523-1.483-1.265-1.483h-12.866c-.96.087-1.4.48-1.4,1.178Zm21.894-12.735h2.748a.116.116,0,0,1,.131.131v26.561a.116.116,0,0,1-.131.131h-2.748a.116.116,0,0,1-.131-.131V266.972A.116.116,0,0,1-189.68,266.841Zm20.934,5.059c3.184,1.657,4.754,4.1,4.754,7.327v10.729a3.919,3.919,0,0,0-.131.523q-1.308,3.14-4.056,3.14h-8.156a7.841,7.841,0,0,1-6.542-3.4c-1-1.178-1.483-3.14-1.483-5.888v-4.056a.116.116,0,0,1,.131-.131H-167v-.829a3.874,3.874,0,0,0-.174-1.4c-.872-2.4-2.442-3.576-4.71-3.576h-8.2q-1.178.2-1.178,1.178v.436a.116.116,0,0,1-.131.131h-2.835l-.131-.044a5.07,5.07,0,0,1,.262-1.745,4.153,4.153,0,0,1,4.056-2.966h8.156a7.275,7.275,0,0,1,3.14.567Zm-12.517,11.252v2.835a5.669,5.669,0,0,0,.174,1.221,4.945,4.945,0,0,0,4.8,3.4h8.025c.654,0,1.09-.392,1.221-1.221v-6.237Zm19.321-11.95h2.748a.116.116,0,0,1,.131.131v1.526A7.827,7.827,0,0,1-154.4,271.2h4.231c1.744,0,3.009,1.047,3.925,3.1l.131.829-.131.044h-2.791c-.393-.654-.785-.96-1.178-.96h-4.012c-2.224,0-3.794,1.221-4.71,3.707a7.78,7.78,0,0,0-.131,1.221V293.4a.116.116,0,0,1-.131.131h-2.748a.116.116,0,0,1-.131-.131V271.29C-162.072,271.246-162.029,271.2-161.942,271.2Zm18.449-5.1h2.748a.116.116,0,0,1,.131.131v3.1h3.009a.116.116,0,0,1,.131.131v2.268a.116.116,0,0,1-.131.131h-3.009v17.751c0,.611.48,1,1.4,1.09h.523a.116.116,0,0,1,.131.131v2.748a.116.116,0,0,1-.131.131h-.567c-2.093,0-3.533-1.134-4.318-3.358a4.52,4.52,0,0,1-.044-.7V271.944a.116.116,0,0,0-.131-.131h-1.7a.116.116,0,0,1-.131-.131v-2.268a.116.116,0,0,1,.131-.131h1.832v-3.1C-143.624,266.144-143.58,266.1-143.493,266.1Z" transform="translate(265 -266.1)"/>
    </g>
    <g id="Layer_2" transform="translate(57.116 28)">
      <path id="Path_2" data-name="Path 2" class="cls-2" d="M-304.2,279.6h16v16h-16Z" transform="translate(324.305 -276.658)"/>
      <path id="Path_3" data-name="Path 3" class="cls-3" d="M-304.2,307.6h16v16h-16Z" transform="translate(324.305 -287.495)"/>
      <path id="Path_4" data-name="Path 4" class="cls-4" d="M-332.1,307.6h16v16h-16Z" transform="translate(335.104 -287.495)"/>
      <path id="Path_5" data-name="Path 5" class="cls-5" d="M-319.8,277h3.862v3.862H-319.8Z" transform="translate(330.343 -275.651)"/>
      <path id="Path_6" data-name="Path 6" class="cls-6" d="M-328,275.8h3.862v3.862H-328Zm0,4.965h3.862v3.861H-328Z" transform="translate(333.517 -275.187)"/>
      <path id="Path_7" data-name="Path 7" class="cls-7" d="M-337,274.8h3.862v3.862H-337Z" transform="translate(337 -274.8)"/>
      <path id="Path_8" data-name="Path 8" class="cls-5" d="M-325.683,291.9h3.862v3.861h-3.862Zm-4.658,0h3.862v3.861h-3.862Zm-4.658,0h3.862v3.861H-335Z" transform="translate(336.226 -281.419)"/>
      <path id="Path_9" data-name="Path 9" class="cls-8" d="M-312.3,285.7h3.862v3.862H-312.3Z" transform="translate(327.44 -279.019)"/>
      <path id="Path_10" data-name="Path 10" class="cls-6" d="M-336.1,283.9h3.862v3.862H-336.1Z" transform="translate(336.652 -278.322)"/>
      <path id="Path_11" data-name="Path 11" class="cls-5" d="M-319.8,284.5h3.862v3.862H-319.8Z" transform="translate(330.343 -278.554)"/>
      <path id="Path_12" data-name="Path 12" class="cls-8" d="M-320.351,278.7h3.862v3.862h-3.862Zm0,8.4h3.862v3.861h-3.862Zm-8.459,4.291h3.862v3.862h-3.862Zm4.229,0h3.862v3.862h-3.862Zm-8.52,0h3.862v3.862H-333.1Zm12.749,0h3.862v3.862h-3.862Z" transform="translate(335.49 -276.31)"/>
    </g>
  </g>
</svg>
