<svg id="Layer_1" xmlns="http://www.w3.org/2000/svg" viewBox="411 -285 1902 1178">
	<style>
		.st0 {
			opacity: 0.36;
			fill: #1d788b;
			enable-background: new;
		}
		.st0,
		.st1 {
			display: none;
		}
		.st2 {
			display: inline;
		}
		.st3 {
			fill: #262f34;
		}
		.st4 {
			fill: #585757;
		}
		.st5 {
			fill: #3d3d3c;
		}
		.st6 {
			fill: #f0e0b1;
		}
		.st7 {
			fill: #e74b60;
		}
		.st8 {
			fill: #1d788b;
		}
		.st9 {
			fill: #e74b60;
			stroke: #333746;
			stroke-width: 0.512;
			stroke-miterlimit: 10;
		}
		.st10 {
			fill: #ebd1a0;
		}
		.st11,
		.st12,
		.st13,
		.st14,
		.st15 {
			fill: none;
			stroke: #9abda9;
			stroke-width: 0.512;
			stroke-miterlimit: 10;
		}
		.st12,
		.st13,
		.st14,
		.st15 {
			stroke-width: 1.0241;
		}
		.st13,
		.st14,
		.st15 {
			fill: #333746;
			stroke: #1d788b;
			stroke-width: 0.8506;
		}
		.st14,
		.st15 {
			fill: #1d788b;
		}
		.st15 {
			fill: #9abda9;
			stroke-width: 0.1128;
		}
		.st16 {
			fill: #14243b;
		}
		.st17,
		.st18,
		.st19,
		.st20 {
			fill: none;
			stroke: #e1ddbe;
			stroke-width: 0.512;
			stroke-miterlimit: 10;
		}
		.st18,
		.st19,
		.st20 {
			fill: #1d788b;
		}
		.st19,
		.st20 {
			fill: #ebd1a0;
			stroke: #1d788b;
			stroke-width: 0.7306;
		}
		.st20 {
			stroke-width: 0.6475;
		}
		.st21,
		.st22 {
			fill: #14243b;
			stroke: #1d788b;
			stroke-width: 1.1133;
		}
		.st22 {
			fill: #ebd1a0;
			stroke-width: 0.8067;
			stroke-miterlimit: 10;
		}
		.st23 {
			fill: #9abda9;
		}
		.st24,
		.st25 {
			fill: none;
			stroke: #1d788b;
			stroke-width: 0.8731;
			stroke-miterlimit: 10;
		}
		.st25 {
			stroke-width: 0.8993;
		}
		.st26 {
			font-family: &apos;
			Bebas&apos;
		}
		.st27 {
			font-size: 12.103px;
		}
	</style>
	<g id="Layer_2_1_"><path class="st0" d="M1591-85.1h2072.4v3.9H1591zM1593.4-78.7h2072.4v3.8H1593.4z"/></g>
	<g id="Layer_1_2_" class="st1">
		<g id="Layer_1_1_" class="st2"><path class="st3" d="M1589.1 12.6H3614v51H1589.1z"/>
			<g id="front_building">
				<g id="lamp_1_"><path class="st4" d="M1842.6-71.3h7.4v60.5h-7.4z"/><path class="st5" d="M1839.3-64h14.1v5.4h-14.1z"/><path class="st4" d="M1843-127.6h6.5v21.4h-6.5z"/><path class="st5" d="M1840.1-119.9h12.5v4.8h-12.5z"/><path class="st4" d="M1872-105.2v10h-10v6.6h16.6v-16.6z"/><path class="st5" d="M1869-100.2h12.5v2.4H1869z"/><path transform="rotate(-45.195 1846.391 -88.714)" class="st4" d="M1830-105h32.7v32.6H1830z"/><path class="st6" d="M1881.4-100.2h-12.2l-5.4-27.4h23z"/><path class="st5" d="M1875.3-138.2l-11.5 10.6h23z"/><path class="st4" d="M1820.5-105.2v10h10v6.6h-16.6v-16.6z"/><path class="st5" d="M1811-100.2h12.5v2.4H1811z"/><path class="st6" d="M1811.1-100.2h12.2l5.4-27.4h-23z"/><path class="st5" d="M1817.2-138.2l11.5 10.6h-23zM1840.1-127.3h12.5v2.4h-12.5z"/><path class="st6" d="M1852.4-127.3h-12.2l-5.4-27.3h23z"/><path class="st5" d="M1846.3-165.3l-11.5 10.7h23z"/><circle class="st5" cx="1846.3" cy="-88.1" r="9.3"/><path class="st5" d="M1835.1-11.4h22.3v44.6h-22.3z"/></g>
			</g><path class="st4" d="M3337.3-70.5h7.4V-10h-7.4z"/><path class="st5" d="M3333.9-63.2h14.1v5.4h-14.1z"/><path class="st4" d="M3337.7-126.8h6.5v21.4h-6.5z"/><path class="st5" d="M3334.7-119.1h12.5v4.8h-12.5z"/><path class="st4" d="M3366.7-104.4v10h-10.1v6.6h16.6v-16.6z"/><path class="st5" d="M3363.7-99.4h12.5v2.4h-12.5z"/><path transform="rotate(-45.195 3340.936 -87.854)" class="st4" d="M3324.6-104.2h32.7v32.6h-32.7z"/><path class="st6" d="M3376.1-99.4h-12.3l-5.3-27.4h22.9z"/><path class="st5" d="M3370-137.4l-11.5 10.6h22.9z"/><path class="st4" d="M3315.1-104.4v10h10.1v6.6h-16.6v-16.6z"/><path class="st5" d="M3305.6-99.4h12.5v2.4h-12.5z"/><path class="st6" d="M3305.7-99.4h12.3l5.4-27.4h-23z"/><path class="st5" d="M3311.9-137.4l11.5 10.6h-23zM3334.7-126.5h12.5v2.4h-12.5z"/><path class="st6" d="M3347.1-126.5h-12.3l-5.3-27.4h23z"/><path class="st5" d="M3341-164.5l-11.5 10.6h23z"/><circle class="st5" cx="3341" cy="-87.3" r="9.3"/><path class="st5" d="M3329.8 34v-44.6h22.3V34"/></g>
		<g id="Layer_2" class="st2"><path class="st7" d="M2717.3 280.8s-2.7 0-4.3 5.1c-1.6 5.2.3 6.4.3 6.4"/><path class="st8" d="M2798.8 252.3s-.3-6.5-4.7-11.7c-1.8-2-4.4-3.1-7-3.1l-25.1.5c-2.4.1-4.7 1.1-6.4 2.8-4.5 4.7-5 11.3-5 11.3"/><path class="st9" d="M2758.5 241.4h32.1v8.4h-32.1z"/><path
			class="st8"
			d="M2754.8 311.3h82.4s-1-19 14-19c13.7 0 14.1 15.4 14.1 15.4s1.9.8 3.2 0c1.2-.8 3.3-11.3 3.3-11.3l-2.4-2.1s.8-2.8 0-5.1c-.8-2.4-2.9-4.5-2.9-4.5-6.5-9.3-36.3-10.6-36.3-10.6s-14-15.2-21.2-18.9-29.3-3.3-29.3-3.3-31.8-1.3-42.9 3.3c-9.2 3.8-14.8 21.7-14.8 21.7s-3.3.3-4.7 4c0 0-2.3 1.5-3.9 7.1 0 0-.8 3.5.5 6.4l-2.6.8v5.5s1.5 4.4 3.6 5.6c2.1 1.2 5-.6 9 3h3.7V308s-1.6.1-1.7-.6c-.1-.8 0-13.7 11.9-14.8 11.9-1.2 18.5 7.8 17.1 18.1l-.1.6z"/><path
			class="st10"
			d="M2798.2 276.3h29.4s-10.4-13.2-15.8-16.1c-4-2.2-12.4-2.8-16.1-2.9-1-.1-1.8.9-1.6 1.8l2.5 15.8c.2.9.8 1.4 1.6 1.4zM2760.9 259.3l-2.2 15.1c-.2 1 .6 1.9 1.7 1.9h27.3c.9 0 1.7-.8 1.7-1.7l-.3-14.9c-.1-1.7-1.5-3.1-3.2-3.1h-21.8c-1.6 0-2.9 1.2-3.2 2.7zM2732.1 275.9h18.8c.4 0 .8-.3.9-.8l3.3-16.3c.1-.6-.4-1.2-1-1.1-3.6.3-13.7 1.1-16.2 3.2-3.1 2.6-6.7 11.4-6.7 11.4s-1.5 2.7.9 3.6z"/><path class="st11" d="M2793.8 310.6s1.2-22.1 0-32.2"/><path class="st12" d="M2730.7 295.5h-19.4"/><circle class="st13" cx="2740.8" cy="307.8" r="12.2"/><circle class="st14" cx="2740.8" cy="307.8" r="7"/><circle class="st15" cx="2740.8" cy="307.8" r="2.7"/><circle class="st13" cx="2851.1" cy="307.2" r="12.2"/><circle class="st14" cx="2851.1" cy="307.2" r="7"/><circle class="st15" cx="2851.1" cy="307.2" r="2.7"/><path class="st12" d="M2831.8 278.5h-106.1"/><path class="st16" d="M2803.1 287.3h-6c-.4 0-.7-.3-.7-.7 0-.4.3-.7.7-.7h6c.4 0 .7.3.7.7 0 .4-.3.7-.7.7zM2762.1 287.3h-6c-.4 0-.7-.3-.7-.7 0-.4.3-.7.7-.7h6c.4 0 .7.3.7.7 0 .4-.3.7-.7.7z"/><path class="st11" d="M2790 252s3.3 15.9 3.8 26.5M2760 251.8c-2.3 7.2-5.2 26.7-5.2 26.7"/><path class="st17" d="M2835.5 311.3s2.6-19.6 0-27.1c-2.6-7.4-5-6.7-5-6.7"/><path class="st12" d="M2726.5 302.8l-14.7-.8M2834.1 280.8h-116.8"/><path class="st18" d="M2821.3 278.9v-8c0-.3.3-.4.5-.3.9.4 2.9 1.6 2.9 5.2 0 2.1-1.9 3.1-2.9 3.5-.3.1-.5-.1-.5-.4z"/><path class="st11" d="M2753.4 278.5v22.3M2786.9 304.1h-32.1M2786.9 305.3h-32.1"/><path class="st17" d="M2836 303.5h-32.2M2836 304.7h-32.2M2865.5 283.5s-8.5-3.7-28.8-2.1M2871.7 296.4h-8.3"/>
			<g><path
				class="st16"
				d="M2764.6 243.3c.4 0 .7.1.9.4.2.2.3.5.3.9v.8c0 .3-.1.6-.4.9-.2.3-.5.4-.9.4h-.4v2h-.8v-5.3l1.3-.1zm.4 1.2c0-.2-.1-.3-.1-.3-.1-.1-.2-.1-.3-.1h-.5v1.7h.5c.1 0 .2-.1.3-.1.1-.1.1-.2.1-.3v-.9zM2767.2 248.5h-.8v-5.3h.8v5.3zM2770.8 248.5h-.9l-.6-1.7-.6 1.7h-.9l1-2.6-1-2.6h.9l.6 1.6.6-1.6h.9l-1 2.6 1 2.6zM2771.5 248.5v-5.3h2.3v.8h-1.5v1.5h1.1v.8h-1.1v1.5h1.5v.8l-2.3-.1zM2776.4 248.5h-2.2v-5.3h.8v4.5h1.3l.1.8zM2778 247.3l-.2 1.2h-.8l.9-5.3h1.1l.9 5.3h-.8l-.2-1.2h-.9zm.4-2.8l-.3 2.1h.6l-.3-2.1zM2781.8 243.3c.4 0 .8.1 1 .4.2.2.3.5.3.9v.8c0 .4-.2.7-.4 1l.6 2.3h-.9l-.5-2h-.5v2h-.8v-5.3l1.2-.1zm.5 1.2c0-.3-.2-.4-.4-.4h-.5v1.7h.5c.1 0 .2-.1.3-.1.1-.1.1-.2.1-.3v-.9zM2784.5 244h-.9v-.8h2.5v.8h-.9v4.5h-.8l.1-4.5z"/></g>
			<g><path class="st7" d="M1603.3 278.5s-3 0-4.7 5.6c-1.8 5.7.4 7 .4 7"/><path class="st8" d="M1692.7 247.3s-.3-7.1-5.2-12.8c-2-2.2-4.8-3.4-7.7-3.4l-27.6.6c-2.7.1-5.2 1.2-7 3.1-4.9 5.2-5.5 12.4-5.5 12.4"/><path class="st9" d="M1648.4 235.3h35.2v9.2h-35.2z"/><path
				class="st8"
				d="M1644.4 312h90.4s-1.1-20.8 15.3-20.8c15 0 15.4 16.9 15.4 16.9s2.1.9 3.5 0 3.6-12.4 3.6-12.4l-2.6-2.2s.9-3 0-5.6-3.2-5-3.2-5c-7.1-10.2-39.8-11.7-39.8-11.7s-15.3-16.7-23.2-20.8-32.1-3.6-32.1-3.6-34.9-1.4-47.1 3.6c-10.1 4.1-16.3 23.8-16.3 23.8s-3.6.3-5.1 4.4c0 0-2.5 1.7-4.3 7.8 0 0-.9 3.8.6 7l-2.9.9v6s1.6 4.9 4 6.2c2.3 1.3 5.4-.7 9.9 3.3h4v-1.4s-1.7.1-1.8-.7c-.1-.8 0-15 13-16.3s20.3 8.6 18.7 19.9v.7z"/><path
				class="st10"
				d="M1692.1 273.6h32.3s-11.4-14.4-17.3-17.7c-4.4-2.4-13.6-3-17.7-3.2-1.1-.1-2 .9-1.8 2l2.8 17.3c.1 1 .8 1.6 1.7 1.6zM1651.2 255l-2.4 16.6c-.2 1.1.7 2.1 1.8 2.1h29.9c1 0 1.8-.8 1.8-1.9l-.4-16.3c-.1-1.9-1.6-3.4-3.5-3.4h-23.9c-1.6-.1-3.1 1.2-3.3 2.9zM1619.6 273.1h20.6c.5 0 .9-.4 1-.8l3.7-17.9c.1-.7-.4-1.3-1.1-1.2-3.9.3-15 1.2-17.8 3.6-3.4 2.8-7.4 12.5-7.4 12.5s-1.7 2.8 1 3.8z"/><path class="st11" d="M1687.2 311.2s1.4-24.3 0-35.3"/><path class="st12" d="M1618.1 294.6h-21.4"/><circle class="st13" cx="1629.1" cy="308.1" r="13.4"/><circle class="st14" cx="1629.1" cy="308.1" r="7.6"/><circle class="st15" cx="1629.1" cy="308.1" r="3"/><circle class="st13" cx="1750.1" cy="307.5" r="13.4"/><circle class="st14" cx="1750.1" cy="307.5" r="7.6"/><circle class="st15" cx="1750.1" cy="307.5" r="3"/><path class="st12" d="M1728.9 275.9h-116.4"/><path class="st16" d="M1697.5 285.6h-6.6c-.4 0-.8-.4-.8-.8s.4-.8.8-.8h6.6c.4 0 .8.4.8.8 0 .5-.4.8-.8.8zM1652.5 285.6h-6.6c-.4 0-.8-.4-.8-.8s.4-.8.8-.8h6.6c.4 0 .8.4.8.8-.1.5-.4.8-.8.8z"/><path class="st11" d="M1683 246.9s3.6 17.4 4.2 29.1M1650.1 246.7c-2.5 7.9-5.7 29.2-5.7 29.2"/><path class="st17" d="M1733 312s2.9-21.5 0-29.7-5.4-7.4-5.4-7.4"/><path class="st12" d="M1613.4 302.7l-16.1-.9M1731.4 278.5h-128.1"/><path class="st18" d="M1717.3 276.5v-8.8c0-.3.3-.5.5-.4 1 .4 3.1 1.8 3.1 5.7 0 2.3-2.1 3.4-3.1 3.8-.2.1-.5 0-.5-.3z"/><path class="st11" d="M1643 275.9v24.5M1679.6 304h-35.2M1679.6 305.3h-35.2"/><path class="st17" d="M1733.4 303.4h-35.1M1733.4 304.7h-35.1M1765.9 281.5s-9.3-4-31.6-2.2M1772.7 295.6h-9.1"/>
				<g><path
					class="st16"
					d="M1655.1 237.3c.4 0 .8.1 1 .4.2.2.4.6.4 1v.8c0 .4-.1.7-.4 1-.2.3-.6.4-.9.4h-.5v2.2h-.9v-5.8h1.3zm.6 1.4c0-.2-.1-.3-.1-.4-.1-.1-.2-.1-.4-.1h-.5v1.8h.5c.1 0 .2-.1.4-.1.1-.1.1-.2.1-.4v-.8zM1658.1 243.1h-.9v-5.8h.9v5.8zM1662 243.1h-1l-.7-1.8-.7 1.8h-.9l1.1-2.9-1.1-2.9h.9l.7 1.8.7-1.8h.9l-1.1 2.9 1.2 2.9zM1662.8 243.1v-5.8h2.5v.9h-1.6v1.6h1.2v.9h-1.2v1.6h1.6v.9l-2.5-.1zM1668.2 243.1h-2.4v-5.8h.9v4.9h1.5v.9zM1669.9 241.8l-.2 1.3h-.9l1-5.8h1.2l.9 5.8h-.9l-.2-1.3h-.9zm.5-3.2l-.3 2.2h.7l-.4-2.2zM1674.1 237.3c.5 0 .8.1 1.1.4.2.2.3.5.3 1v.8c0 .4-.2.8-.5 1.1l.7 2.5h-.9l-.5-2.2h-.6v2.2h-.9v-5.8h1.3zm.5 1.4c0-.4-.2-.5-.5-.5h-.5v1.8h.5c.1 0 .2-.1.4-.1.1-.1.1-.2.1-.4v-.8zM1677 238.2h-.9v-.9h2.7v.9h-.9v4.9h-.9v-4.9z"/></g>
			</g>
			<g><path
				class="st7"
				d="M2531.2 314l55.7.6c3.5 0 6.5-2.9 6.5-6.4v-15c0-20-3.1-39.9-9-59l-10.4-33c-.8-2.6-3.3-4.4-6-4.4h-273.6c-2.9 0-5.4 2.2-5.6 5.2l-7.6 102c-.1 1.4.8 2.7 2.2 3l27.9 5 39.1.5c-.7-1.9-1.2-4-1.2-6.1 0-8.9 7.3-16.2 16.2-16.2 8.9 0 16.2 7.3 16.2 16.2 0 2.2-.5 4.4-1.3 6.3l121 1.3c-.7-1.9-1.2-4-1.2-6.1 0-8.9 7.3-16.2 16.2-16.2s16.2 7.3 16.2 16.2c-.1 2-.5 4.1-1.3 6.1z"/><path
				class="st19"
				d="M2335.9 228H2305c-1.7 0-3.1-1.4-3.1-3.1v-20.8c0-1.7 1.4-3.1 3.1-3.1h30.9c1.7 0 3.1 1.4 3.1 3.1V225c0 1.6-1.4 3-3.1 3zM2379.4 228H2344c-1.6 0-2.9-1.3-2.9-2.9v-21c0-1.6 1.3-2.9 2.9-2.9h35.4c1.6 0 2.9 1.3 2.9 2.9v21c0 1.6-1.4 2.9-2.9 2.9zM2386.7 279.5h-35.4c-1.6 0-2.9-1.3-2.9-2.9v-21c0-1.6 1.3-2.9 2.9-2.9h35.4c1.6 0 2.9 1.3 2.9 2.9v21c0 1.6-1.2 2.9-2.9 2.9zM2461.2 279.5h-35.4c-1.6 0-2.9-1.3-2.9-2.9v-21c0-1.6 1.3-2.9 2.9-2.9h35.4c1.6 0 2.9 1.3 2.9 2.9v21c0 1.6-1.2 2.9-2.9 2.9zM2504.2 279.5h-35.4c-1.6 0-2.9-1.3-2.9-2.9v-21c0-1.6 1.3-2.9 2.9-2.9h35.4c1.6 0 2.9 1.3 2.9 2.9v21c0 1.6-1.3 2.9-2.9 2.9zM2451.7 228h-35.4c-1.6 0-2.9-1.3-2.9-2.9v-21c0-1.6 1.3-2.9 2.9-2.9h35.4c1.6 0 2.9 1.3 2.9 2.9v21c0 1.6-1.3 2.9-2.9 2.9zM2407.8 228H2388c-2 0-3.5-1.6-3.5-3.5v-19.7c0-2 1.6-3.5 3.5-3.5h19.7c2 0 3.5 1.6 3.5 3.5v19.7c.1 2-1.5 3.5-3.4 3.5zM2495.2 228.1h-35.4c-1.6 0-2.9-1.3-2.9-2.9v-21c0-1.6 1.3-2.9 2.9-2.9h35.4c1.6 0 2.9 1.3 2.9 2.9v21c0 1.6-1.3 2.9-2.9 2.9zM2523.5 228.1h-19.7c-2 0-3.5-1.6-3.5-3.5v-19.7c0-2 1.6-3.5 3.5-3.5h19.7c2 0 3.5 1.6 3.5 3.5v19.7c.1 2-1.5 3.5-3.5 3.5z"/><path class="st20" d="M2544.7 200.5h11.2c7.3 0 13.7 4.4 16.5 11.1l4.5 10.9c1.2 3-1 6.3-4.3 6.3h-27.7c-2.5 0-4.6-2-4.6-4.6v-19.1c-.2-2.6 1.8-4.6 4.4-4.6z"/><path
				class="st19"
				d="M2395 252.6h22.6c1.8 0 3.2 1.4 3.2 3.2v20.5c0 1.8-1.4 3.2-3.2 3.2H2395c-1.8 0-3.2-1.4-3.2-3.2v-20.5c0-1.7 1.4-3.2 3.2-3.2zM2330.7 252.6h12.3c1.7 0 3.1 1.4 3.1 3.1v20.8c0 1.7-1.4 3.1-3.1 3.1h-12.3c-1.7 0-3.1-1.4-3.1-3.1v-20.8c0-1.7 1.4-3.1 3.1-3.1zM2512.2 252.6h12.3c1.7 0 3.1 1.4 3.1 3.1v20.8c0 1.7-1.4 3.1-3.1 3.1h-12.3c-1.7 0-3.1-1.4-3.1-3.1v-20.8c0-1.7 1.4-3.1 3.1-3.1zM2322.8 279.5h-17.7c-1.7 0-3.1-1.4-3.1-3.1v-20.8c0-1.7 1.4-3.1 3.1-3.1h17.7c1.7 0 3.1 1.4 3.1 3.1v20.8c-.1 1.7-1.5 3.1-3.1 3.1z"/><circle class="st21" cx="2365.4" cy="306.1" r="14.7"/><circle class="st21" cx="2516.2" cy="308.3" r="14.7"/><path class="st22" d="M2585 282.1h-33.4c-1.1 0-2.1-.9-2.1-2.1v-27.1c0-1.1.9-2.1 2.1-2.1h31.6c1.7 0 3.1 1.2 3.3 2.8l3.4 22.7c.5 3.1-1.8 5.8-4.9 5.8z"/><circle class="st8" cx="2365.4" cy="306.1" r="9.1"/><circle class="st23" cx="2365.4" cy="306.1" r="6.1"/><circle class="st8" cx="2516.2" cy="308.3" r="9.1"/><circle class="st23" cx="2516.2" cy="308.3" r="6.1"/><path class="st24" d="M2301.9 249.2H2531"/><path class="st25" d="M2301.9 231.8H2531"/><path class="st24" d="M2302.2 283.5H2531"/><path class="st8" d="M2301.9 231.8H2531v17.3h-229.1z"/>
				<text transform="translate(2310.709 245.216)" class="st10 st26 st27">Digital Signage Solution for Everyone</text>
			</g>
		</g>
	</g><path class="st16" d="M243.5 846.9h2237.1V921H243.5z"/></svg>
