<?xml version="1.0" encoding="utf-8"?>
<!-- Generator: Adobe Illustrator 19.0.0, SVG Export Plug-In . SVG Version: 6.00 Build 0)  -->
<svg version="1.1" xmlns="http://www.w3.org/2000/svg" xmlns:xlink="http://www.w3.org/1999/xlink" x="0px" y="0px"
	 viewBox="0 0 442.7 102.5" style="enable-background:new 0 0 442.7 102.5;" xml:space="preserve">
<style type="text/css">
	.st0{fill:none;}
	.st1{fill:#8FA3C1;}
</style>
<g id="object">
	<g>
		<path class="st0" d="M689.7,20.6c-5.1-3.8-11.3-6.2-18-6.9l-2.1,31.3c0.2,0.1,0.4,0.1,0.6,0.2L689.7,20.6z"/>
		<path class="st0" d="M655.3,67.6l0.7-0.4l9.1,3.3l1.7-14.7c-0.3-0.1-0.6-0.2-0.9-0.3L655.3,67.6z"/>
		<path class="st0" d="M673.2,48.4l31.2-3.6c-1-6.7-3.8-12.9-7.9-17.9l-23.6,20.6C673,47.8,673.1,48.1,673.2,48.4z"/>
		<path class="st0" d="M666.1,45l-3.6-31.1c-6.5,0.9-12.4,3.6-17.4,7.5L665.9,45C666,45,666,45,666.1,45z"/>
		<path class="st0" d="M663.2,47.2l-24.5-19.4c-3.9,5.1-6.6,11.2-7.4,17.9l31.1,3.6C662.5,48.5,662.8,47.8,663.2,47.2z"/>
		<path class="st0" d="M672.8,53l23.6,20.6c4.5-5.4,7.4-12.2,8.2-19.5L673.3,52C673.2,52.3,673,52.7,672.8,53z"/>
		<path class="st0" d="M672.5,92.4c0-0.2,0-0.4,0.1-0.6c-0.5,0.1-1.1,0.1-1.6,0.1L672.5,92.4z"/>
		<path class="st0" d="M672.6,86.8c6.3-0.8,12.2-3.2,17.1-6.8l-19.2-24.1L672.6,86.8z"/>
		<polygon class="st0" points="280.8,78 290.2,78 291.3,78 291.3,71.7 280.8,66 		"/>
		<polygon class="st0" points="132.2,44.7 119,53.6 119,78 132.2,78 		"/>
		<polygon class="st0" points="116.6,55.2 99.4,66.9 99.4,78 116.6,78 		"/>
		<path class="st0" d="M641.2,70.8l22-17.4c-0.1-0.2-0.2-0.4-0.3-0.6l-31.6,2.1c0.7,5.8,2.8,11.2,6,15.9H641.2z"/>
		<rect x="146.7" y="41.4" class="st0" width="79.3" height="36.4"/>
		<polygon class="st0" points="97,68.5 87.4,74.9 87.4,78 97,78 		"/>
		<polygon class="st0" points="256.4,53 241,44.7 241,78 256.4,78 		"/>
		<polygon class="st0" points="278.4,64.8 258.8,54.2 258.8,78 278.4,78 		"/>
		<path class="st1" d="M290.6,67.7L241.8,42V25.4l-1.6-1.6v-8.5h-1.2v8.5h-2.4v-5.5h-1.6v-4.7h-1.4v4.3h-1.6v5.3h-3.6v-6.3H227v6.7
			l-2,2v10.3h-33.3l-4.6-4.1l-4.6,4.6H146v-12h-1.3v-7.7h-1v7.7h-3v-5.7h-0.8v-3.4h-1v-1.6h-0.9V15h-1v3.2h-0.7v5.5h-3.6v-6.6h-1
			v7.1l-1,1.8v15L97,64.4l-10.3,7.2V44.8h-1.3v-6.6h-2v-2.6h-0.4v2.5h-5.7v-2.5h-0.4v2.6h-0.8v5.6h-1v15l-3.3-3.3l-4,3.5V44h-1.1
			v-5.6h-2.1v-5.2h-0.3v6.1h-6.1v-6.1h-0.3v5.2h-1.7V96v4.3v2.2v2.2h114h12.2h1h11.2h1h11.2h1h11.2h1h11.2h1h11.2h1h11.2h1h9.9h2.2
			h9.7h1.2h11.8h0.1c1-12.3,1.2-24.6,1.2-36.9c-0.7-0.2-1.4-0.6-2.1-1V67.7z M97,78h-9.6v-3.1l9.6-6.5V78z M116.6,78H99.4V66.9
			l17.3-11.7V78z M119,78V53.6l13.2-8.9l0,33.4H119z M226,77.8h-79.3V41.4H226V77.8z M256.4,78H241l0-33.4l15.5,8.3V78z M278.4,78
			h-19.6V54.2l19.6,10.5V78z M291.3,78h-1.2h-9.4V66l10.5,5.7V78z"/>
		<path class="st1" d="M382.2,102.5c0.1-0.3,0.1-0.5,0.1-0.8c0-0.4-0.2-0.7-0.4-1c2.3-0.5,4.4-1.1,6.6-1.9c0.2,1.1,1.1,1.8,2.2,1.7
			c1.2-0.1,2.1-1.1,2-2.3c0-0.4-0.2-0.8-0.4-1.1c1.9-1,3.7-2.1,5.5-3.3c0.4,0.6,1.1,1.1,1.9,1c1.2-0.1,2.1-1.1,2-2.3
			c0-0.5-0.3-1-0.6-1.3c1.5-1.3,2.9-2.7,4.2-4.2c0.4,0.2,0.8,0.4,1.3,0.3c1.2-0.1,2.1-1.1,2-2.3c0-0.5-0.3-1-0.7-1.4
			c1.1-1.5,2.1-3.2,2.9-4.9c0.3,0.2,0.8,0.4,1.2,0.4c1.2,0,2.1-1,2.1-2.1c0-1-0.7-1.8-1.6-2.1c0.7-1.7,1.3-3.5,1.7-5.4
			c0.2,0,0.3,0.1,0.5,0.1c1.2,0,2.1-1,2.1-2.1c0-1.1-0.8-2-1.8-2.1c0.3-1.8,0.4-3.7,0.4-5.6c0-0.8,0-1.6-0.1-2.4
			c1.2,0,2.1-1,2.1-2.1c0-1.2-1-2.1-2.1-2.1c-0.2,0-0.3,0-0.4,0.1c-0.4-2.2-0.9-4.4-1.6-6.5c0.8-0.3,1.5-1.1,1.5-2
			c0-1.2-1-2.1-2.1-2.1c-0.3,0-0.6,0.1-0.9,0.2c-0.9-2-1.9-3.8-3.1-5.6c0.6-0.4,1-1,1-1.8c0-1.2-1-2.1-2.1-2.1c-0.5,0-1,0.2-1.3,0.5
			c-1.2-1.5-2.6-3-4-4.3c0.3-0.4,0.5-0.8,0.5-1.4c0-1.2-1-2.1-2.1-2.1c-0.6,0-1.2,0.3-1.6,0.7c-1.3-1-2.7-1.9-4.1-2.8
			c0.3-0.4,0.5-0.8,0.5-1.3c0-1.2-1-2.1-2.1-2.1c-1,0-1.8,0.7-2,1.5c-1.9-0.9-3.8-1.6-5.8-2.2c0-0.2,0.1-0.3,0.1-0.5
			c0-1.2-1-2.1-2.1-2.1c-1,0-1.9,0.7-2.1,1.7c-1.9-0.3-3.8-0.6-5.7-0.7c0.1-0.2,0.1-0.4,0.1-0.6c0-1.2-1-2.1-2.1-2.1
			c-1.2,0-2.1,1-2.1,2.1c0,0.2,0,0.4,0.1,0.6c-2,0.1-3.9,0.3-5.8,0.7c-0.2-1-1.1-1.7-2.1-1.7c-1.2,0-2.1,1-2.1,2.1
			c0,0.2,0,0.4,0.1,0.6c-2,0.6-3.9,1.3-5.8,2.2c-0.2-0.9-1.1-1.6-2-1.6c-1.2,0-2.1,1-2.1,2.1c0,0.5,0.2,1,0.5,1.4
			c-1.4,0.8-2.8,1.8-4.1,2.8c-0.4-0.5-1-0.8-1.6-0.8c-1.2,0-2.1,1-2.1,2.1c0,0.5,0.2,1,0.5,1.4c-1.4,1.3-2.8,2.8-4,4.3
			c-0.4-0.3-0.9-0.5-1.4-0.5c-1.2,0-2.1,1-2.1,2.1c0,0.8,0.4,1.5,1.1,1.8c-1.2,1.8-2.2,3.7-3.1,5.6c-0.3-0.1-0.6-0.2-0.9-0.2
			c-1.2,0-2.1,1-2.1,2.1c0,1,0.7,1.8,1.5,2c-0.7,2.1-1.2,4.3-1.6,6.5c-0.2,0-0.3-0.1-0.5-0.1c-1.2,0-2.1,1-2.1,2.1
			c0,1.2,1,2.1,2.1,2.1c0,0,0.1,0,0.1,0c0,0.8-0.1,1.6-0.1,2.5c0,1.9,0.1,3.8,0.4,5.6c-1.1,0.1-1.9,1-1.9,2.1c0,1.2,1,2.1,2.1,2.1
			c0.2,0,0.4,0,0.6-0.1c0.4,1.9,1,3.7,1.7,5.4c-1,0.2-1.7,1.1-1.7,2.1c0,1.2,1,2.1,2.1,2.1c0.5,0,0.9-0.2,1.2-0.4
			c0.3,0.5,0.6,1.1,0.9,1.6h-4.1c2.2,0.9,4.4,1.4,6.3,2.6C350.2,96.7,366,100.5,382.2,102.5z M378.1,101.9l-1.5-0.5
			c0.5,0,1.1-0.1,1.6-0.1C378.1,101.4,378.1,101.6,378.1,101.9z M378.2,96.2l-2.1-30.9l19.2,24.1C390.3,93,384.5,95.4,378.2,96.2z
			 M402,83.1l-23.6-20.6c0.2-0.3,0.3-0.7,0.5-1.1l31.3,2.1C409.4,70.9,406.5,77.6,402,83.1z M402,36.4c4.1,5,7,11.2,7.9,17.9
			l-31.2,3.6c-0.1-0.3-0.2-0.6-0.4-0.9L402,36.4z M377.3,23.1c6.7,0.7,12.8,3.1,18,6.9l-19.6,24.6c-0.2-0.1-0.4-0.1-0.6-0.2
			L377.3,23.1z M372.4,65.3L370.7,80l-9.1-3.3l-0.7,0.4L371.5,65C371.8,65.1,372.1,65.2,372.4,65.3z M368.1,23.3l3.6,31.1
			c-0.1,0-0.1,0-0.2,0.1l-20.8-23.7C355.6,26.9,361.6,24.3,368.1,23.3z M344.3,37.2l24.5,19.4c-0.4,0.6-0.7,1.3-0.8,2.1l-31.1-3.6
			C337.7,48.5,340.3,42.3,344.3,37.2z M336.9,64.4l31.6-2.1c0.1,0.2,0.2,0.4,0.3,0.6l-22,17.4h-3.9
			C339.7,75.6,337.6,70.2,336.9,64.4z"/>
		<path class="st1" d="M364.6,77.4h-27.9v-1.1h-16.4V33.8l-5.1-11v-5.3l-3.7-6V1.8h-0.8v9.7l-2.9,5.9v5.8l-5.1,12.9V78h-1.2
			c-0.4-2-1.1-3.4-1.1-3.4s-0.7,1.4-1.1,3.4h-3.1c-0.4-2-1.1-3.4-1.1-3.4s-0.7,1.4-1.1,3.4h-3c0.4,11-0.1,22.1-1,32.7h4.7h3.2h41.2
			h13.3h8.1h2.8C361.2,101.2,364.1,88.5,364.6,77.4z"/>
	</g>
	<g>
		<path class="st0" d="M579.6,188.1c-5.1,3.8-11.3,6.2-18,6.9l-2.1-31.3c0.2-0.1,0.4-0.1,0.6-0.2L579.6,188.1z"/>
		<path class="st0" d="M545.3,141l0.7,0.4l9.1-3.3l1.7,14.7c-0.3,0.1-0.6,0.2-1,0.3L545.3,141z"/>
		<path class="st0" d="M563.2,160.2l31.2,3.6c-1,6.7-3.8,12.9-7.9,17.9l-23.6-20.6C562.9,160.8,563,160.5,563.2,160.2z"/>
		<path class="st0" d="M556,163.7l-3.6,31.1c-6.5-0.9-12.4-3.6-17.4-7.5l20.8-23.7C555.9,163.6,556,163.7,556,163.7z"/>
		<path class="st0" d="M553.1,161.5l-24.5,19.4c-4-5.1-6.6-11.2-7.4-17.9l31.1-3.6C552.4,160.1,552.7,160.8,553.1,161.5z"/>
		<path class="st0" d="M562.8,155.6l23.6-20.6c4.5,5.4,7.4,12.2,8.2,19.5l-31.3,2.1C563.1,156.3,562.9,156,562.8,155.6z"/>
		<path class="st0" d="M562.4,116.3c0,0.2,0,0.4,0.1,0.6c-0.5-0.1-1.1-0.1-1.6-0.1L562.4,116.3z"/>
		<path class="st0" d="M562.5,121.9c6.3,0.8,12.2,3.2,17.1,6.8l-19.2,24.1L562.5,121.9z"/>
		<polygon class="st0" points="181.3,130.6 181.3,137 170.7,142.6 170.7,130.6 180.1,130.6 		"/>
		<polygon class="st0" points="22.1,164 8.9,155.1 8.9,130.6 22.2,130.6 		"/>
		<polygon class="st0" points="6.6,153.5 -10.7,141.8 -10.7,130.6 6.6,130.6 		"/>
		<path class="st0" d="M531.1,137.8l22,17.5c-0.1,0.2-0.2,0.4-0.3,0.6l-31.6-2.1c0.7-5.8,2.8-11.2,6-15.9H531.1z"/>
		<rect x="36.6" y="130.8" class="st0" width="79.3" height="36.4"/>
		<polygon class="st0" points="-13,140.2 -22.6,133.7 -22.6,130.6 -13,130.6 		"/>
		<polygon class="st0" points="146.4,155.7 130.9,164 130.9,130.6 146.4,130.6 		"/>
		<polygon class="st0" points="168.4,143.9 148.7,154.4 148.7,130.6 168.4,130.6 		"/>
	</g>
	<polygon class="st1" points="91.4,78 56.3,78 -1.8,105.1 89.3,105.1 	"/>
	<polygon class="st1" points="320.1,76 365.6,76 440.9,103.6 322.9,103.6 	"/>
	<path class="st1" d="M342.6,169.1"/>
</g>
<g id="effect">
</g>
</svg>
